{
  "source": "C:\\Users\\Peter\\Desktop\\stuff\\MIUN\\quantitative_research\\video_compression\\videos\\BVI-HD\\BVI-HD_CDVL_videos\\ORIG\\Rowing_1920x1080_30fps.mp4",
  "output": "C:\\Users\\Peter\\Desktop\\stuff\\MIUN\\quantitative_research\\video_compression\\compressed_videos\\BVI-HD\\hevc\\2\\Rowing_1920x1080_30fps_hevc.mp4",
  "codec": "hevc",
  "ok": "Input #0, mov,mp4,m4a,3gp,3g2,mj2, from 'C:\\Users\\Peter\\Desktop\\stuff\\MIUN\\quantitative_research\\video_compression\\videos\\BVI-HD\\BVI-HD_CDVL_videos\\ORIG\\Rowing_1920x1080_30fps.mp4':\n  Metadata:\n    major_brand     : isom\n    minor_version   : 512\n    compatible_brands: isomiso2avc1mp41\n    encoder         : Lavf54.28.101\n  Duration: 00:00:05.00, start: 0.000000, bitrate: 259220 kb/s\n  Stream #0:0[0x1](und): Video: h264 (High 4:4:4 Predictive) (avc1 / 0x31637661), yuv420p(progressive), 1920x1080, 259216 kb/s, 30 fps, 30 tbr, 30 tbn (default)\n    Metadata:\n      handler_name    : VideoHandler\n      vendor_id       : [0][0][0][0]\n[out#0/mp4 @ 0000016ea66af040] Codec AVOption b:a (set bitrate (in bits/s)) has not been used for any stream. The most likely reason is either wrong type (e.g. a video option with no video streams) or that it is a private option of some decoder which was not actually used for any stream.\nStream mapping:\n  Stream #0:0 -> #0:0 (h264 (native) -> hevc (libx265))\nPress [q] to stop, [?] for help\n[libx265 @ 0000016ea67675c0] Unknown option: \"aq-mode.\nx265 [info]: HEVC encoder version 4.1+190-8f11c33ac\nx265 [info]: build info [Windows][GCC 15.1.0][64 bit] 10bit\nx265 [info]: using cpu capabilities: MMX2 SSE2Fast LZCNT SSSE3 SSE4.2 AVX FMA3 BMI2 AVX2\nx265 [info]: Main 10 profile, Level-4 (Main tier)\nx265 [info]: Thread pool created using 12 threads\nx265 [info]: Slices                              : 1\nx265 [info]: frame threads / pool features       : 3 / wpp(17 rows)\nx265 [info]: Coding QT: max CU size, min CU size : 64 / 8\nx265 [info]: Residual QT: max TU size, max depth : 32 / 1 inter / 1 intra\nx265 [info]: ME / range / subpel / merge         : star / 57 / 3 / 3\nx265 [info]: Keyframe min / max / scenecut / bias  : 25 / 250 / 40 / 5.00 \nx265 [info]: Lookahead / bframes / badapt        : 25 / 4 / 2\nx265 [info]: b-pyramid / weightp / weightb       : 1 / 1 / 0\nx265 [info]: References / ref-limit  cu / depth  : 4 / on / on\nx265 [info]: AQ: mode / str / qg-size / cu-tree  : 2 / 1.0 / 32 / 1\nx265 [info]: Rate Control / qCompress            : ABR-2000 kbps / 0.60\nx265 [info]: VBV/HRD buffer / max-rate / init    : 2000 / 2000 / 0.750\nx265 [info]: tools: rect limit-modes rd=4 psy-rd=2.00 rdoq=2 psy-rdoq=1.00\nx265 [info]: tools: rskip mode=1 signhide tmvp strong-intra-smoothing lslices=4\nx265 [info]: tools: deblock sao dhdr10-info\nOutput #0, mp4, to 'C:\\Users\\Peter\\Desktop\\stuff\\MIUN\\quantitative_research\\video_compression\\compressed_videos\\BVI-HD\\hevc\\2\\Rowing_1920x1080_30fps_hevc.mp4':\n  Metadata:\n    major_brand     : isom\n    minor_version   : 512\n    compatible_brands: isomiso2avc1mp41\n    encoder         : Lavf62.3.100\n  Stream #0:0(und): Video: hevc (hev1 / 0x31766568), yuv420p10le(tv, progressive), 1920x1080, q=2-31, 2000 kb/s, 30 fps, 15360 tbn (default)\n    Metadata:\n      encoder         : Lavc62.11.100 libx265\n      handler_name    : VideoHandler\n      vendor_id       : [0][0][0][0]\n    Side data:\n      cpb: bitrate max/min/avg: 2000000/0/2000000 buffer size: 2000000 vbv_delay: N/A\nframe=    0 fps=0.0 q=0.0 size=       0KiB time=N/A bitrate=N/A speed=N/A elapsed=0:00:00.52    \nframe=    0 fps=0.0 q=0.0 size=       0KiB time=N/A bitrate=N/A speed=N/A elapsed=0:00:01.07    \nframe=    0 fps=0.0 q=0.0 size=       0KiB time=N/A bitrate=N/A speed=N/A elapsed=0:00:01.60    \nframe=    0 fps=0.0 q=0.0 size=       0KiB time=N/A bitrate=N/A speed=N/A elapsed=0:00:02.11    \nframe=    0 fps=0.0 q=0.0 size=       0KiB time=N/A bitrate=N/A speed=N/A elapsed=0:00:02.62    \nframe=    0 fps=0.0 q=0.0 size=       0KiB time=N/A bitrate=N/A speed=N/A elapsed=0:00:03.14    \nframe=    0 fps=0.0 q=0.0 size=       0KiB time=N/A bitrate=N/A speed=N/A elapsed=0:00:03.65    \nframe=    0 fps=0.0 q=0.0 size=       0KiB time=N/A bitrate=N/A speed=N/A elapsed=0:00:04.17    \nframe=    0 fps=0.0 q=0.0 size=       0KiB time=N/A bitrate=N/A speed=N/A elapsed=0:00:04.68    \nframe=    0 fps=0.0 q=0.0 size=       0KiB time=N/A bitrate=N/A speed=N/A elapsed=0:00:05.20    \nframe=    1 fps=0.2 q=39.5 size=       0KiB time=-00:00:00.03 bitrate=N/A speed=N/A elapsed=0:00:05.74    \nframe=    2 fps=0.3 q=43.8 size=       0KiB time=00:00:00.00 bitrate=N/A speed=   0x elapsed=0:00:06.25    \nframe=    2 fps=0.3 q=43.8 size=       0KiB time=00:00:00.00 bitrate=N/A speed=   0x elapsed=0:00:06.76    \nframe=    3 fps=0.4 q=50.1 size=       0KiB time=00:00:00.03 bitrate=  10.6kbits/s speed=0.00457x elapsed=0:00:07.29    \nframe=    3 fps=0.4 q=50.1 size=       0KiB time=00:00:00.03 bitrate=  10.6kbits/s speed=0.00427x elapsed=0:00:07.80    \nframe=    4 fps=0.5 q=50.7 size=       0KiB time=00:00:00.06 bitrate=   5.3kbits/s speed=0.00801x elapsed=0:00:08.32    \nframe=    5 fps=0.6 q=51.0 size=       0KiB time=00:00:00.10 bitrate=   3.5kbits/s speed=0.0113x elapsed=0:00:08.83    \nframe=    5 fps=0.5 q=51.0 size=       0KiB time=00:00:00.10 bitrate=   3.5kbits/s speed=0.0107x elapsed=0:00:09.35    \nframe=    6 fps=0.6 q=51.0 size=       0KiB time=00:00:00.13 bitrate=   2.6kbits/s speed=0.0135x elapsed=0:00:09.86    \nframe=    6 fps=0.6 q=51.0 size=       0KiB time=00:00:00.13 bitrate=   2.6kbits/s speed=0.0129x elapsed=0:00:10.37    \nframe=    7 fps=0.6 q=51.0 size=       0KiB time=00:00:00.16 bitrate=   2.1kbits/s speed=0.0153x elapsed=0:00:10.89    \nframe=    7 fps=0.6 q=51.0 size=       0KiB time=00:00:00.16 bitrate=   2.1kbits/s speed=0.0146x elapsed=0:00:11.40    \nframe=    8 fps=0.7 q=45.8 size=       0KiB time=00:00:00.20 bitrate=   1.8kbits/s speed=0.0168x elapsed=0:00:11.92    \nframe=    8 fps=0.6 q=45.8 size=       0KiB time=00:00:00.20 bitrate=   1.8kbits/s speed=0.0161x elapsed=0:00:12.44    \nframe=    9 fps=0.7 q=48.8 size=       0KiB time=00:00:00.23 bitrate=   1.5kbits/s speed=0.018x elapsed=0:00:12.96    \nframe=    9 fps=0.7 q=48.8 size=       0KiB time=00:00:00.23 bitrate=   1.5kbits/s speed=0.0173x elapsed=0:00:13.49    \nframe=   10 fps=0.7 q=49.9 size=       0KiB time=00:00:00.26 bitrate=   1.3kbits/s speed=0.019x elapsed=0:00:14.00    \nframe=   10 fps=0.7 q=49.9 size=       0KiB time=00:00:00.26 bitrate=   1.3kbits/s speed=0.0184x elapsed=0:00:14.51    \nframe=   10 fps=0.7 q=49.9 size=       0KiB time=00:00:00.26 bitrate=   1.3kbits/s speed=0.0177x elapsed=0:00:15.04    \nframe=   11 fps=0.7 q=48.7 size=       0KiB time=00:00:00.30 bitrate=   1.2kbits/s speed=0.0193x elapsed=0:00:15.57    \nframe=   11 fps=0.7 q=48.7 size=       0KiB time=00:00:00.30 bitrate=   1.2kbits/s speed=0.0187x elapsed=0:00:16.07    \nframe=   12 fps=0.7 q=43.9 size=       0KiB time=00:00:00.33 bitrate=   1.1kbits/s speed=0.0201x elapsed=0:00:16.60    \nframe=   12 fps=0.7 q=43.9 size=       0KiB time=00:00:00.33 bitrate=   1.1kbits/s speed=0.0195x elapsed=0:00:17.11    \nframe=   12 fps=0.7 q=43.9 size=       0KiB time=00:00:00.33 bitrate=   1.1kbits/s speed=0.0189x elapsed=0:00:17.63    \nframe=   13 fps=0.7 q=46.0 size=       0KiB time=00:00:00.36 bitrate=   1.0kbits/s speed=0.0202x elapsed=0:00:18.15    \nframe=   13 fps=0.7 q=46.0 size=       0KiB time=00:00:00.36 bitrate=   1.0kbits/s speed=0.0196x elapsed=0:00:18.66    \nframe=   13 fps=0.7 q=46.0 size=       0KiB time=00:00:00.36 bitrate=   1.0kbits/s speed=0.0191x elapsed=0:00:19.17    \nframe=   14 fps=0.7 q=48.4 size=       0KiB time=00:00:00.40 bitrate=   0.9kbits/s speed=0.0203x elapsed=0:00:19.69    \nframe=   14 fps=0.7 q=48.4 size=       0KiB time=00:00:00.40 bitrate=   0.9kbits/s speed=0.0198x elapsed=0:00:20.20    \nframe=   14 fps=0.7 q=48.4 size=       0KiB time=00:00:00.40 bitrate=   0.9kbits/s speed=0.0193x elapsed=0:00:20.72    \nframe=   15 fps=0.7 q=46.8 size=       0KiB time=00:00:00.43 bitrate=   0.8kbits/s speed=0.0204x elapsed=0:00:21.23    \nframe=   15 fps=0.7 q=46.8 size=       0KiB time=00:00:00.43 bitrate=   0.8kbits/s speed=0.0199x elapsed=0:00:21.75    \nframe=   16 fps=0.7 q=44.6 size=       0KiB time=00:00:00.46 bitrate=   0.8kbits/s speed=0.021x elapsed=0:00:22.26    \nframe=   16 fps=0.7 q=44.6 size=       0KiB time=00:00:00.46 bitrate=   0.8kbits/s speed=0.0205x elapsed=0:00:22.78    \nframe=   17 fps=0.7 q=45.4 size=       0KiB time=00:00:00.50 bitrate=   0.7kbits/s speed=0.0215x elapsed=0:00:23.29    \nframe=   17 fps=0.7 q=45.4 size=       0KiB time=00:00:00.50 bitrate=   0.7kbits/s speed=0.021x elapsed=0:00:23.81    \nframe=   17 fps=0.7 q=45.4 size=       0KiB time=00:00:00.50 bitrate=   0.7kbits/s speed=0.0205x elapsed=0:00:24.33    \nframe=   18 fps=0.7 q=46.8 size=       0KiB time=00:00:00.53 bitrate=   0.7kbits/s speed=0.0215x elapsed=0:00:24.85    \nframe=   18 fps=0.7 q=46.8 size=       0KiB time=00:00:00.53 bitrate=   0.7kbits/s speed=0.021x elapsed=0:00:25.36    \nframe=   18 fps=0.7 q=46.8 size=       0KiB time=00:00:00.53 bitrate=   0.7kbits/s speed=0.0206x elapsed=0:00:25.88    \nframe=   19 fps=0.7 q=47.2 size=       0KiB time=00:00:00.56 bitrate=   0.6kbits/s speed=0.0215x elapsed=0:00:26.38    \nframe=   19 fps=0.7 q=47.2 size=       0KiB time=00:00:00.56 bitrate=   0.6kbits/s speed=0.0211x elapsed=0:00:26.91    \nframe=   19 fps=0.7 q=47.2 size=       0KiB time=00:00:00.56 bitrate=   0.6kbits/s speed=0.0207x elapsed=0:00:27.42    \nframe=   20 fps=0.7 q=45.1 size=       0KiB time=00:00:00.60 bitrate=   0.6kbits/s speed=0.0215x elapsed=0:00:27.95    \nframe=   20 fps=0.7 q=45.1 size=       0KiB time=00:00:00.60 bitrate=   0.6kbits/s speed=0.0211x elapsed=0:00:28.47    \nframe=   20 fps=0.7 q=45.1 size=       0KiB time=00:00:00.60 bitrate=   0.6kbits/s speed=0.0207x elapsed=0:00:29.04    \nframe=   21 fps=0.7 q=47.2 size=       0KiB time=00:00:00.63 bitrate=   0.6kbits/s speed=0.0214x elapsed=0:00:29.57    \nframe=   21 fps=0.7 q=47.2 size=       0KiB time=00:00:00.63 bitrate=   0.6kbits/s speed=0.021x elapsed=0:00:30.11    \nframe=   21 fps=0.7 q=47.2 size=       0KiB time=00:00:00.63 bitrate=   0.6kbits/s speed=0.0207x elapsed=0:00:30.66    \nframe=   21 fps=0.7 q=47.2 size=       0KiB time=00:00:00.63 bitrate=   0.6kbits/s speed=0.0203x elapsed=0:00:31.20    \nframe=   21 fps=0.7 q=47.2 size=       0KiB time=00:00:00.63 bitrate=   0.6kbits/s speed=0.02x elapsed=0:00:31.73    \nframe=   21 fps=0.7 q=47.2 size=       0KiB time=00:00:00.63 bitrate=   0.6kbits/s speed=0.0196x elapsed=0:00:32.29    \nframe=   22 fps=0.7 q=48.0 size=       0KiB time=00:00:00.66 bitrate=   0.5kbits/s speed=0.0203x elapsed=0:00:32.80    \nframe=   22 fps=0.7 q=48.0 size=       0KiB time=00:00:00.66 bitrate=   0.5kbits/s speed=0.02x elapsed=0:00:33.33    \nframe=   22 fps=0.6 q=48.0 size=       0KiB time=00:00:00.66 bitrate=   0.5kbits/s speed=0.0197x elapsed=0:00:33.86    \nframe=   22 fps=0.6 q=48.0 size=       0KiB time=00:00:00.66 bitrate=   0.5kbits/s speed=0.0194x elapsed=0:00:34.37    \nframe=   22 fps=0.6 q=48.0 size=       0KiB time=00:00:00.66 bitrate=   0.5kbits/s speed=0.0191x elapsed=0:00:34.89    \nframe=   22 fps=0.6 q=48.0 size=       0KiB time=00:00:00.66 bitrate=   0.5kbits/s speed=0.0188x elapsed=0:00:35.42    \nframe=   22 fps=0.6 q=48.0 size=       0KiB time=00:00:00.66 bitrate=   0.5kbits/s speed=0.0185x elapsed=0:00:35.95    \nframe=   23 fps=0.6 q=48.3 size=       0KiB time=00:00:00.70 bitrate=   0.5kbits/s speed=0.0192x elapsed=0:00:36.47    \nframe=   23 fps=0.6 q=48.3 size=       0KiB time=00:00:00.70 bitrate=   0.5kbits/s speed=0.0189x elapsed=0:00:36.99    \nframe=   23 fps=0.6 q=48.3 size=       0KiB time=00:00:00.70 bitrate=   0.5kbits/s speed=0.0187x elapsed=0:00:37.51    \nframe=   23 fps=0.6 q=48.3 size=       0KiB time=00:00:00.70 bitrate=   0.5kbits/s speed=0.0184x elapsed=0:00:38.03    \nframe=   23 fps=0.6 q=48.3 size=       0KiB time=00:00:00.70 bitrate=   0.5kbits/s speed=0.0182x elapsed=0:00:38.55    \nframe=   23 fps=0.6 q=48.3 size=       0KiB time=00:00:00.70 bitrate=   0.5kbits/s speed=0.0179x elapsed=0:00:39.08    \nframe=   24 fps=0.6 q=45.3 size=       0KiB time=00:00:00.73 bitrate=   0.5kbits/s speed=0.0185x elapsed=0:00:39.62    \nframe=   24 fps=0.6 q=45.3 size=       0KiB time=00:00:00.73 bitrate=   0.5kbits/s speed=0.0183x elapsed=0:00:40.15    \nframe=   24 fps=0.6 q=45.3 size=       0KiB time=00:00:00.73 bitrate=   0.5kbits/s speed=0.018x elapsed=0:00:40.68    \nframe=   24 fps=0.6 q=45.3 size=       0KiB time=00:00:00.73 bitrate=   0.5kbits/s speed=0.0178x elapsed=0:00:41.23    \nframe=   24 fps=0.6 q=45.3 size=       0KiB time=00:00:00.73 bitrate=   0.5kbits/s speed=0.0176x elapsed=0:00:41.74    \nframe=   24 fps=0.6 q=45.3 size=       0KiB time=00:00:00.73 bitrate=   0.5kbits/s speed=0.0174x elapsed=0:00:42.26    \nframe=   25 fps=0.6 q=47.1 size=       0KiB time=00:00:00.76 bitrate=   0.5kbits/s speed=0.0179x elapsed=0:00:42.78    \nframe=   25 fps=0.6 q=47.1 size=       0KiB time=00:00:00.76 bitrate=   0.5kbits/s speed=0.0177x elapsed=0:00:43.30    \nframe=   25 fps=0.6 q=47.1 size=       0KiB time=00:00:00.76 bitrate=   0.5kbits/s speed=0.0175x elapsed=0:00:43.83    \nframe=   25 fps=0.6 q=47.1 size=       0KiB time=00:00:00.76 bitrate=   0.5kbits/s speed=0.0173x elapsed=0:00:44.35    \nframe=   25 fps=0.6 q=47.1 size=       0KiB time=00:00:00.76 bitrate=   0.5kbits/s speed=0.0171x elapsed=0:00:44.86    \nframe=   25 fps=0.6 q=47.1 size=       0KiB time=00:00:00.76 bitrate=   0.5kbits/s speed=0.0169x elapsed=0:00:45.37    \nframe=   26 fps=0.6 q=48.4 size=       0KiB time=00:00:00.80 bitrate=   0.4kbits/s speed=0.0174x elapsed=0:00:45.89    \nframe=   26 fps=0.6 q=48.4 size=       0KiB time=00:00:00.80 bitrate=   0.4kbits/s speed=0.0172x elapsed=0:00:46.41    \nframe=   26 fps=0.6 q=48.4 size=       0KiB time=00:00:00.80 bitrate=   0.4kbits/s speed=0.017x elapsed=0:00:46.93    \nframe=   26 fps=0.5 q=48.4 size=       0KiB time=00:00:00.80 bitrate=   0.4kbits/s speed=0.0169x elapsed=0:00:47.46    \nframe=   26 fps=0.5 q=48.4 size=       0KiB time=00:00:00.80 bitrate=   0.4kbits/s speed=0.0167x elapsed=0:00:47.98    \nframe=   26 fps=0.5 q=48.4 size=       0KiB time=00:00:00.80 bitrate=   0.4kbits/s speed=0.0165x elapsed=0:00:48.52    \nframe=   26 fps=0.5 q=48.4 size=       0KiB time=00:00:00.80 bitrate=   0.4kbits/s speed=0.0163x elapsed=0:00:49.03    \nframe=   27 fps=0.5 q=48.7 size=       0KiB time=00:00:00.83 bitrate=   0.4kbits/s speed=0.0168x elapsed=0:00:49.56    \nframe=   27 fps=0.5 q=48.7 size=       0KiB time=00:00:00.83 bitrate=   0.4kbits/s speed=0.0166x elapsed=0:00:50.08    \nframe=   27 fps=0.5 q=48.7 size=       0KiB time=00:00:00.83 bitrate=   0.4kbits/s speed=0.0165x elapsed=0:00:50.59    \nframe=   27 fps=0.5 q=48.7 size=       0KiB time=00:00:00.83 bitrate=   0.4kbits/s speed=0.0163x elapsed=0:00:51.12    \nframe=   27 fps=0.5 q=48.7 size=       0KiB time=00:00:00.83 bitrate=   0.4kbits/s speed=0.0161x elapsed=0:00:51.65    \nframe=   27 fps=0.5 q=48.7 size=       0KiB time=00:00:00.83 bitrate=   0.4kbits/s speed=0.016x elapsed=0:00:52.16    \nframe=   28 fps=0.5 q=45.6 size=       0KiB time=00:00:00.86 bitrate=   0.4kbits/s speed=0.0165x elapsed=0:00:52.67    \nframe=   28 fps=0.5 q=45.6 size=       0KiB time=00:00:00.86 bitrate=   0.4kbits/s speed=0.0163x elapsed=0:00:53.18    \nframe=   28 fps=0.5 q=45.6 size=       0KiB time=00:00:00.86 bitrate=   0.4kbits/s speed=0.0161x elapsed=0:00:53.71    \nframe=   28 fps=0.5 q=45.6 size=       0KiB time=00:00:00.86 bitrate=   0.4kbits/s speed=0.016x elapsed=0:00:54.26    \nframe=   28 fps=0.5 q=45.6 size=       0KiB time=00:00:00.86 bitrate=   0.4kbits/s speed=0.0158x elapsed=0:00:54.79    \nframe=   28 fps=0.5 q=45.6 size=       0KiB time=00:00:00.86 bitrate=   0.4kbits/s speed=0.0157x elapsed=0:00:55.34    \nframe=   29 fps=0.5 q=46.9 size=       0KiB time=00:00:00.90 bitrate=   0.4kbits/s speed=0.0161x elapsed=0:00:55.84    \nframe=   29 fps=0.5 q=46.9 size=       0KiB time=00:00:00.90 bitrate=   0.4kbits/s speed=0.016x elapsed=0:00:56.38    \nframe=   29 fps=0.5 q=46.9 size=       0KiB time=00:00:00.90 bitrate=   0.4kbits/s speed=0.0158x elapsed=0:00:56.91    \nframe=   30 fps=0.5 q=48.3 size=       0KiB time=00:00:00.93 bitrate=   0.4kbits/s speed=0.0163x elapsed=0:00:57.42    \nframe=   30 fps=0.5 q=48.3 size=       0KiB time=00:00:00.93 bitrate=   0.4kbits/s speed=0.0161x elapsed=0:00:57.95    \nframe=   30 fps=0.5 q=48.3 size=       0KiB time=00:00:00.93 bitrate=   0.4kbits/s speed=0.016x elapsed=0:00:58.51    \nframe=   30 fps=0.5 q=48.3 size=       0KiB time=00:00:00.93 bitrate=   0.4kbits/s speed=0.0158x elapsed=0:00:59.04    \nframe=   30 fps=0.5 q=48.3 size=       0KiB time=00:00:00.93 bitrate=   0.4kbits/s speed=0.0157x elapsed=0:00:59.54    \nframe=   30 fps=0.5 q=48.3 size=       0KiB time=00:00:00.93 bitrate=   0.4kbits/s speed=0.0155x elapsed=0:01:00.06    \nframe=   31 fps=0.5 q=48.5 size=     256KiB time=00:00:00.96 bitrate=2169.8kbits/s speed=0.016x elapsed=0:01:00.58    \nframe=   31 fps=0.5 q=48.5 size=     256KiB time=00:00:00.96 bitrate=2169.8kbits/s speed=0.0158x elapsed=0:01:01.09    \nframe=   31 fps=0.5 q=48.5 size=     256KiB time=00:00:00.96 bitrate=2169.8kbits/s speed=0.0157x elapsed=0:01:01.63    \nframe=   31 fps=0.5 q=48.5 size=     256KiB time=00:00:00.96 bitrate=2169.8kbits/s speed=0.0156x elapsed=0:01:02.16    \nframe=   31 fps=0.5 q=48.5 size=     256KiB time=00:00:00.96 bitrate=2169.8kbits/s speed=0.0154x elapsed=0:01:02.70    \nframe=   31 fps=0.5 q=48.5 size=     256KiB time=00:00:00.96 bitrate=2169.8kbits/s speed=0.0153x elapsed=0:01:03.25    \nframe=   31 fps=0.5 q=48.5 size=     256KiB time=00:00:00.96 bitrate=2169.8kbits/s speed=0.0152x elapsed=0:01:03.79    \nframe=   31 fps=0.5 q=48.5 size=     256KiB time=00:00:00.96 bitrate=2169.8kbits/s speed=0.015x elapsed=0:01:04.32    \nframe=   32 fps=0.5 q=48.5 size=     256KiB time=00:00:01.00 bitrate=2097.5kbits/s speed=0.0154x elapsed=0:01:04.89    \nframe=   32 fps=0.5 q=48.5 size=     256KiB time=00:00:01.00 bitrate=2097.5kbits/s speed=0.0153x elapsed=0:01:05.45    \nframe=   32 fps=0.5 q=48.5 size=     256KiB time=00:00:01.00 bitrate=2097.5kbits/s speed=0.0152x elapsed=0:01:05.97    \nframe=   32 fps=0.5 q=48.5 size=     256KiB time=00:00:01.00 bitrate=2097.5kbits/s speed=0.015x elapsed=0:01:06.54    \nframe=   32 fps=0.5 q=48.5 size=     256KiB time=00:00:01.00 bitrate=2097.5kbits/s speed=0.0149x elapsed=0:01:07.06    \nframe=   32 fps=0.5 q=48.5 size=     256KiB time=00:00:01.00 bitrate=2097.5kbits/s speed=0.0148x elapsed=0:01:07.61    \nframe=   32 fps=0.5 q=48.5 size=     256KiB time=00:00:01.00 bitrate=2097.5kbits/s speed=0.0147x elapsed=0:01:08.18    \nframe=   32 fps=0.5 q=48.5 size=     256KiB time=00:00:01.00 bitrate=2097.5kbits/s speed=0.0146x elapsed=0:01:08.72    \nframe=   32 fps=0.5 q=48.5 size=     256KiB time=00:00:01.00 bitrate=2097.5kbits/s speed=0.0144x elapsed=0:01:09.25    \nframe=   32 fps=0.5 q=48.5 size=     256KiB time=00:00:01.00 bitrate=2097.5kbits/s speed=0.0143x elapsed=0:01:09.83    \nframe=   33 fps=0.5 q=45.7 size=     256KiB time=00:00:01.03 bitrate=2029.8kbits/s speed=0.0147x elapsed=0:01:10.41    \nframe=   33 fps=0.5 q=45.7 size=     256KiB time=00:00:01.03 bitrate=2029.8kbits/s speed=0.0146x elapsed=0:01:10.95    \nframe=   33 fps=0.5 q=45.7 size=     256KiB time=00:00:01.03 bitrate=2029.8kbits/s speed=0.0145x elapsed=0:01:11.48    \nframe=   33 fps=0.5 q=45.7 size=     256KiB time=00:00:01.03 bitrate=2029.8kbits/s speed=0.0143x elapsed=0:01:12.02    \nframe=   33 fps=0.5 q=45.7 size=     256KiB time=00:00:01.03 bitrate=2029.8kbits/s speed=0.0142x elapsed=0:01:12.55    \nframe=   34 fps=0.5 q=46.8 size=     256KiB time=00:00:01.06 bitrate=1966.4kbits/s speed=0.0146x elapsed=0:01:13.09    \nframe=   34 fps=0.5 q=46.8 size=     256KiB time=00:00:01.06 bitrate=1966.4kbits/s speed=0.0145x elapsed=0:01:13.61    \nframe=   34 fps=0.5 q=46.8 size=     256KiB time=00:00:01.06 bitrate=1966.4kbits/s speed=0.0144x elapsed=0:01:14.13    \nframe=   34 fps=0.5 q=46.8 size=     256KiB time=00:00:01.06 bitrate=1966.4kbits/s speed=0.0143x elapsed=0:01:14.63    \nframe=   35 fps=0.5 q=48.4 size=     256KiB time=00:00:01.10 bitrate=1906.8kbits/s speed=0.0146x elapsed=0:01:15.17    \nframe=   35 fps=0.5 q=48.4 size=     256KiB time=00:00:01.10 bitrate=1906.8kbits/s speed=0.0145x elapsed=0:01:15.70    \nframe=   35 fps=0.5 q=48.4 size=     256KiB time=00:00:01.10 bitrate=1906.8kbits/s speed=0.0144x elapsed=0:01:16.23    \nframe=   35 fps=0.5 q=48.4 size=     256KiB time=00:00:01.10 bitrate=1906.8kbits/s speed=0.0143x elapsed=0:01:16.73    \nframe=   35 fps=0.5 q=48.4 size=     256KiB time=00:00:01.10 bitrate=1906.8kbits/s speed=0.0142x elapsed=0:01:17.25    \nframe=   36 fps=0.5 q=48.5 size=     256KiB time=00:00:01.13 bitrate=1850.7kbits/s speed=0.0146x elapsed=0:01:17.77    \nframe=   36 fps=0.5 q=48.5 size=     256KiB time=00:00:01.13 bitrate=1850.7kbits/s speed=0.0145x elapsed=0:01:18.29    \nframe=   36 fps=0.5 q=48.5 size=     256KiB time=00:00:01.13 bitrate=1850.7kbits/s speed=0.0144x elapsed=0:01:18.80    \nframe=   36 fps=0.5 q=48.5 size=     256KiB time=00:00:01.13 bitrate=1850.7kbits/s speed=0.0143x elapsed=0:01:19.32    \nframe=   37 fps=0.5 q=48.5 size=     256KiB time=00:00:01.16 bitrate=1797.9kbits/s speed=0.0146x elapsed=0:01:19.91    \nframe=   37 fps=0.5 q=48.5 size=     256KiB time=00:00:01.16 bitrate=1797.9kbits/s speed=0.0145x elapsed=0:01:20.43    \nframe=   37 fps=0.5 q=48.5 size=     256KiB time=00:00:01.16 bitrate=1797.9kbits/s speed=0.0144x elapsed=0:01:20.95    \nframe=   37 fps=0.5 q=48.5 size=     256KiB time=00:00:01.16 bitrate=1797.9kbits/s speed=0.0143x elapsed=0:01:21.47    \nframe=   37 fps=0.5 q=48.5 size=     256KiB time=00:00:01.16 bitrate=1797.9kbits/s speed=0.0142x elapsed=0:01:21.99    \nframe=   37 fps=0.4 q=48.5 size=     256KiB time=00:00:01.16 bitrate=1797.9kbits/s speed=0.0141x elapsed=0:01:22.50    \nframe=   37 fps=0.4 q=48.5 size=     256KiB time=00:00:01.16 bitrate=1797.9kbits/s speed=0.0141x elapsed=0:01:23.01    \nframe=   38 fps=0.5 q=45.9 size=     256KiB time=00:00:01.20 bitrate=1747.9kbits/s speed=0.0144x elapsed=0:01:23.55    \nframe=   38 fps=0.5 q=45.9 size=     256KiB time=00:00:01.20 bitrate=1747.9kbits/s speed=0.0143x elapsed=0:01:24.08    \nframe=   38 fps=0.4 q=45.9 size=     256KiB time=00:00:01.20 bitrate=1747.9kbits/s speed=0.0142x elapsed=0:01:24.61    \nframe=   38 fps=0.4 q=45.9 size=     256KiB time=00:00:01.20 bitrate=1747.9kbits/s speed=0.0141x elapsed=0:01:25.12    \nframe=   38 fps=0.4 q=45.9 size=     256KiB time=00:00:01.20 bitrate=1747.9kbits/s speed=0.014x elapsed=0:01:25.64    \nframe=   39 fps=0.5 q=46.7 size=     256KiB time=00:00:01.23 bitrate=1700.7kbits/s speed=0.0143x elapsed=0:01:26.16    \nframe=   39 fps=0.4 q=46.7 size=     256KiB time=00:00:01.23 bitrate=1700.7kbits/s speed=0.0142x elapsed=0:01:26.68    \nframe=   39 fps=0.4 q=46.7 size=     256KiB time=00:00:01.23 bitrate=1700.7kbits/s speed=0.0141x elapsed=0:01:27.21    \nframe=   39 fps=0.4 q=46.7 size=     256KiB time=00:00:01.23 bitrate=1700.7kbits/s speed=0.0141x elapsed=0:01:27.73    \nframe=   39 fps=0.4 q=46.7 size=     256KiB time=00:00:01.23 bitrate=1700.7kbits/s speed=0.014x elapsed=0:01:28.26    \nframe=   39 fps=0.4 q=46.7 size=     256KiB time=00:00:01.23 bitrate=1700.7kbits/s speed=0.0139x elapsed=0:01:28.80    \nframe=   39 fps=0.4 q=46.7 size=     256KiB time=00:00:01.23 bitrate=1700.7kbits/s speed=0.0138x elapsed=0:01:29.34    \nframe=   39 fps=0.4 q=46.7 size=     256KiB time=00:00:01.23 bitrate=1700.7kbits/s speed=0.0137x elapsed=0:01:29.86    \nframe=   40 fps=0.4 q=48.5 size=     256KiB time=00:00:01.26 bitrate=1655.9kbits/s speed=0.014x elapsed=0:01:30.43    \nframe=   40 fps=0.4 q=48.5 size=     256KiB time=00:00:01.26 bitrate=1655.9kbits/s speed=0.0139x elapsed=0:01:30.96    \nframe=   40 fps=0.4 q=48.5 size=     256KiB time=00:00:01.26 bitrate=1655.9kbits/s speed=0.0138x elapsed=0:01:31.56    \nframe=   40 fps=0.4 q=48.5 size=     256KiB time=00:00:01.26 bitrate=1655.9kbits/s speed=0.0137x elapsed=0:01:32.20    \nframe=   40 fps=0.4 q=48.5 size=     256KiB time=00:00:01.26 bitrate=1655.9kbits/s speed=0.0137x elapsed=0:01:32.79    \nframe=   40 fps=0.4 q=48.5 size=     256KiB time=00:00:01.26 bitrate=1655.9kbits/s speed=0.0136x elapsed=0:01:33.33    \nframe=   40 fps=0.4 q=48.5 size=     256KiB time=00:00:01.26 bitrate=1655.9kbits/s speed=0.0135x elapsed=0:01:33.88    \nframe=   40 fps=0.4 q=48.5 size=     256KiB time=00:00:01.26 bitrate=1655.9kbits/s speed=0.0134x elapsed=0:01:34.45    \nframe=   40 fps=0.4 q=48.5 size=     256KiB time=00:00:01.26 bitrate=1655.9kbits/s speed=0.0133x elapsed=0:01:34.98    \nframe=   41 fps=0.4 q=48.7 size=     256KiB time=00:00:01.26 bitrate=1655.9kbits/s speed=0.0133x elapsed=0:01:35.52    \nframe=   41 fps=0.4 q=48.7 size=     256KiB time=00:00:01.30 bitrate=1613.5kbits/s speed=0.0135x elapsed=0:01:36.08    \nframe=   41 fps=0.4 q=48.7 size=     256KiB time=00:00:01.30 bitrate=1613.5kbits/s speed=0.0135x elapsed=0:01:36.63    \nframe=   41 fps=0.4 q=48.7 size=     256KiB time=00:00:01.30 bitrate=1613.5kbits/s speed=0.0134x elapsed=0:01:37.21    \nframe=   41 fps=0.4 q=48.7 size=     256KiB time=00:00:01.30 bitrate=1613.5kbits/s speed=0.0133x elapsed=0:01:37.79    \nframe=   41 fps=0.4 q=48.7 size=     256KiB time=00:00:01.30 bitrate=1613.5kbits/s speed=0.0132x elapsed=0:01:38.36    \nframe=   41 fps=0.4 q=48.7 size=     256KiB time=00:00:01.30 bitrate=1613.5kbits/s speed=0.0131x elapsed=0:01:38.88    \nframe=   41 fps=0.4 q=48.7 size=     256KiB time=00:00:01.30 bitrate=1613.5kbits/s speed=0.0131x elapsed=0:01:39.45    \nframe=   41 fps=0.4 q=48.7 size=     256KiB time=00:00:01.30 bitrate=1613.5kbits/s speed=0.013x elapsed=0:01:40.00    \nframe=   41 fps=0.4 q=48.7 size=     256KiB time=00:00:01.30 bitrate=1613.5kbits/s speed=0.0129x elapsed=0:01:40.53    \nframe=   42 fps=0.4 q=48.5 size=     256KiB time=00:00:01.33 bitrate=1573.1kbits/s speed=0.0132x elapsed=0:01:41.08    \nframe=   42 fps=0.4 q=48.5 size=     256KiB time=00:00:01.33 bitrate=1573.1kbits/s speed=0.0131x elapsed=0:01:41.63    \nframe=   42 fps=0.4 q=48.5 size=     256KiB time=00:00:01.33 bitrate=1573.1kbits/s speed=0.0131x elapsed=0:01:42.16    \nframe=   42 fps=0.4 q=48.5 size=     256KiB time=00:00:01.33 bitrate=1573.1kbits/s speed=0.013x elapsed=0:01:42.71    \nframe=   42 fps=0.4 q=48.5 size=     256KiB time=00:00:01.33 bitrate=1573.1kbits/s speed=0.0129x elapsed=0:01:43.26    \nframe=   42 fps=0.4 q=48.5 size=     256KiB time=00:00:01.33 bitrate=1573.1kbits/s speed=0.0128x elapsed=0:01:43.79    \nframe=   42 fps=0.4 q=48.5 size=     256KiB time=00:00:01.33 bitrate=1573.1kbits/s speed=0.0128x elapsed=0:01:44.32    \nframe=   42 fps=0.4 q=48.5 size=     256KiB time=00:00:01.33 bitrate=1573.1kbits/s speed=0.0127x elapsed=0:01:44.87    \nframe=   43 fps=0.4 q=46.0 size=     256KiB time=00:00:01.36 bitrate=1534.8kbits/s speed=0.013x elapsed=0:01:45.39    \nframe=   43 fps=0.4 q=46.0 size=     256KiB time=00:00:01.36 bitrate=1534.8kbits/s speed=0.0129x elapsed=0:01:45.93    \nframe=   43 fps=0.4 q=46.0 size=     256KiB time=00:00:01.36 bitrate=1534.8kbits/s speed=0.0128x elapsed=0:01:46.43    \nframe=   43 fps=0.4 q=46.0 size=     256KiB time=00:00:01.36 bitrate=1534.8kbits/s speed=0.0128x elapsed=0:01:46.96    \nframe=   43 fps=0.4 q=46.0 size=     256KiB time=00:00:01.36 bitrate=1534.8kbits/s speed=0.0127x elapsed=0:01:47.49    \nframe=   43 fps=0.4 q=46.0 size=     256KiB time=00:00:01.36 bitrate=1534.8kbits/s speed=0.0126x elapsed=0:01:48.07    \nframe=   44 fps=0.4 q=47.2 size=     256KiB time=00:00:01.40 bitrate=1498.2kbits/s speed=0.0129x elapsed=0:01:48.59    \nframe=   44 fps=0.4 q=47.2 size=     256KiB time=00:00:01.40 bitrate=1498.2kbits/s speed=0.0128x elapsed=0:01:49.11    \nframe=   44 fps=0.4 q=47.2 size=     256KiB time=00:00:01.40 bitrate=1498.2kbits/s speed=0.0128x elapsed=0:01:49.64    \nframe=   44 fps=0.4 q=47.2 size=     256KiB time=00:00:01.40 bitrate=1498.2kbits/s speed=0.0127x elapsed=0:01:50.17    \nframe=   44 fps=0.4 q=47.2 size=     256KiB time=00:00:01.40 bitrate=1498.2kbits/s speed=0.0126x elapsed=0:01:50.69    \nframe=   44 fps=0.4 q=47.2 size=     256KiB time=00:00:01.40 bitrate=1498.2kbits/s speed=0.0126x elapsed=0:01:51.25    \nframe=   44 fps=0.4 q=47.2 size=     256KiB time=00:00:01.40 bitrate=1498.2kbits/s speed=0.0125x elapsed=0:01:51.79    \nframe=   44 fps=0.4 q=47.2 size=     256KiB time=00:00:01.40 bitrate=1498.2kbits/s speed=0.0125x elapsed=0:01:52.31    \nframe=   45 fps=0.4 q=48.7 size=     256KiB time=00:00:01.43 bitrate=1463.4kbits/s speed=0.0127x elapsed=0:01:52.84    \nframe=   45 fps=0.4 q=48.7 size=     256KiB time=00:00:01.43 bitrate=1463.4kbits/s speed=0.0126x elapsed=0:01:53.36    \nframe=   45 fps=0.4 q=48.7 size=     256KiB time=00:00:01.43 bitrate=1463.4kbits/s speed=0.0126x elapsed=0:01:53.89    \nframe=   45 fps=0.4 q=48.7 size=     256KiB time=00:00:01.43 bitrate=1463.4kbits/s speed=0.0125x elapsed=0:01:54.44    \nframe=   45 fps=0.4 q=48.7 size=     256KiB time=00:00:01.43 bitrate=1463.4kbits/s speed=0.0125x elapsed=0:01:54.95    \nframe=   45 fps=0.4 q=48.7 size=     256KiB time=00:00:01.43 bitrate=1463.4kbits/s speed=0.0124x elapsed=0:01:55.46    \nframe=   45 fps=0.4 q=48.7 size=     256KiB time=00:00:01.43 bitrate=1463.4kbits/s speed=0.0124x elapsed=0:01:55.99    \nframe=   45 fps=0.4 q=48.7 size=     256KiB time=00:00:01.43 bitrate=1463.4kbits/s speed=0.0123x elapsed=0:01:56.55    \nframe=   45 fps=0.4 q=48.7 size=     256KiB time=00:00:01.43 bitrate=1463.4kbits/s speed=0.0122x elapsed=0:01:57.09    \nframe=   45 fps=0.4 q=48.7 size=     256KiB time=00:00:01.43 bitrate=1463.4kbits/s speed=0.0122x elapsed=0:01:57.65    \nframe=   46 fps=0.4 q=48.6 size=     256KiB time=00:00:01.46 bitrate=1430.1kbits/s speed=0.0124x elapsed=0:01:58.19    \nframe=   46 fps=0.4 q=48.6 size=     256KiB time=00:00:01.46 bitrate=1430.1kbits/s speed=0.0124x elapsed=0:01:58.73    \nframe=   46 fps=0.4 q=48.6 size=     256KiB time=00:00:01.46 bitrate=1430.1kbits/s speed=0.0123x elapsed=0:01:59.27    \nframe=   46 fps=0.4 q=48.6 size=     256KiB time=00:00:01.46 bitrate=1430.1kbits/s speed=0.0122x elapsed=0:01:59.78    \nframe=   47 fps=0.4 q=45.8 size=     256KiB time=00:00:01.50 bitrate=1398.3kbits/s speed=0.0125x elapsed=0:02:00.29    \nframe=   47 fps=0.4 q=45.8 size=     256KiB time=00:00:01.50 bitrate=1398.3kbits/s speed=0.0124x elapsed=0:02:00.84    \nframe=   47 fps=0.4 q=45.8 size=     256KiB time=00:00:01.50 bitrate=1398.3kbits/s speed=0.0124x elapsed=0:02:01.38    \nframe=   47 fps=0.4 q=45.8 size=     256KiB time=00:00:01.50 bitrate=1398.3kbits/s speed=0.0123x elapsed=0:02:01.93    \nframe=   47 fps=0.4 q=45.8 size=     256KiB time=00:00:01.50 bitrate=1398.3kbits/s speed=0.0122x elapsed=0:02:02.48    \nframe=   48 fps=0.4 q=46.9 size=     256KiB time=00:00:01.53 bitrate=1367.9kbits/s speed=0.0125x elapsed=0:02:03.00    \nframe=   48 fps=0.4 q=46.9 size=     256KiB time=00:00:01.53 bitrate=1367.9kbits/s speed=0.0124x elapsed=0:02:03.52    \nframe=   48 fps=0.4 q=46.9 size=     256KiB time=00:00:01.53 bitrate=1367.9kbits/s speed=0.0124x elapsed=0:02:04.05    \nframe=   48 fps=0.4 q=46.9 size=     256KiB time=00:00:01.53 bitrate=1367.9kbits/s speed=0.0123x elapsed=0:02:04.60    \nframe=   48 fps=0.4 q=46.9 size=     256KiB time=00:00:01.53 bitrate=1367.9kbits/s speed=0.0123x elapsed=0:02:05.12    \nframe=   48 fps=0.4 q=46.9 size=     256KiB time=00:00:01.53 bitrate=1367.9kbits/s speed=0.0122x elapsed=0:02:05.65    \nframe=   49 fps=0.4 q=48.5 size=     256KiB time=00:00:01.56 bitrate=1338.8kbits/s speed=0.0124x elapsed=0:02:06.17    \nframe=   49 fps=0.4 q=48.5 size=     256KiB time=00:00:01.56 bitrate=1338.8kbits/s speed=0.0124x elapsed=0:02:06.71    \nframe=   49 fps=0.4 q=48.5 size=     256KiB time=00:00:01.56 bitrate=1338.8kbits/s speed=0.0123x elapsed=0:02:07.25    \nframe=   49 fps=0.4 q=48.5 size=     256KiB time=00:00:01.56 bitrate=1338.8kbits/s speed=0.0123x elapsed=0:02:07.76    \nframe=   49 fps=0.4 q=48.5 size=     256KiB time=00:00:01.56 bitrate=1338.8kbits/s speed=0.0122x elapsed=0:02:08.31    \nframe=   49 fps=0.4 q=48.5 size=     256KiB time=00:00:01.56 bitrate=1338.8kbits/s speed=0.0122x elapsed=0:02:08.85    \nframe=   50 fps=0.4 q=48.4 size=     256KiB time=00:00:01.60 bitrate=1310.9kbits/s speed=0.0124x elapsed=0:02:09.39    \nframe=   50 fps=0.4 q=48.4 size=     256KiB time=00:00:01.60 bitrate=1310.9kbits/s speed=0.0123x elapsed=0:02:09.93    \nframe=   50 fps=0.4 q=48.4 size=     256KiB time=00:00:01.60 bitrate=1310.9kbits/s speed=0.0123x elapsed=0:02:10.45    \nframe=   50 fps=0.4 q=48.4 size=     256KiB time=00:00:01.60 bitrate=1310.9kbits/s speed=0.0122x elapsed=0:02:10.97    \nframe=   51 fps=0.4 q=48.5 size=     256KiB time=00:00:01.63 bitrate=1284.2kbits/s speed=0.0124x elapsed=0:02:11.50    \nframe=   51 fps=0.4 q=48.5 size=     256KiB time=00:00:01.63 bitrate=1284.2kbits/s speed=0.0124x elapsed=0:02:12.04    \nframe=   51 fps=0.4 q=48.5 size=     256KiB time=00:00:01.63 bitrate=1284.2kbits/s speed=0.0123x elapsed=0:02:12.56    \nframe=   51 fps=0.4 q=48.5 size=     256KiB time=00:00:01.63 bitrate=1284.2kbits/s speed=0.0123x elapsed=0:02:13.08    \nframe=   51 fps=0.4 q=48.5 size=     256KiB time=00:00:01.63 bitrate=1284.2kbits/s speed=0.0122x elapsed=0:02:13.59    \nframe=   51 fps=0.4 q=48.5 size=     256KiB time=00:00:01.63 bitrate=1284.2kbits/s speed=0.0122x elapsed=0:02:14.11    \nframe=   51 fps=0.4 q=48.5 size=     256KiB time=00:00:01.63 bitrate=1284.2kbits/s speed=0.0121x elapsed=0:02:14.64    \nframe=   51 fps=0.4 q=48.5 size=     256KiB time=00:00:01.63 bitrate=1284.2kbits/s speed=0.0121x elapsed=0:02:15.17    \nframe=   52 fps=0.4 q=45.8 size=     256KiB time=00:00:01.66 bitrate=1258.5kbits/s speed=0.0123x elapsed=0:02:15.73    \nframe=   52 fps=0.4 q=45.8 size=     256KiB time=00:00:01.66 bitrate=1258.5kbits/s speed=0.0122x elapsed=0:02:16.26    \nframe=   52 fps=0.4 q=45.8 size=     256KiB time=00:00:01.66 bitrate=1258.5kbits/s speed=0.0122x elapsed=0:02:16.79    \nframe=   52 fps=0.4 q=45.8 size=     256KiB time=00:00:01.66 bitrate=1258.5kbits/s speed=0.0121x elapsed=0:02:17.34    \nframe=   52 fps=0.4 q=45.8 size=     256KiB time=00:00:01.66 bitrate=1258.5kbits/s speed=0.0121x elapsed=0:02:17.88    \nframe=   53 fps=0.4 q=47.1 size=     256KiB time=00:00:01.70 bitrate=1233.8kbits/s speed=0.0123x elapsed=0:02:18.40    \nframe=   53 fps=0.4 q=47.1 size=     256KiB time=00:00:01.70 bitrate=1233.8kbits/s speed=0.0122x elapsed=0:02:18.94    \nframe=   53 fps=0.4 q=47.1 size=     256KiB time=00:00:01.70 bitrate=1233.8kbits/s speed=0.0122x elapsed=0:02:19.46    \nframe=   53 fps=0.4 q=47.1 size=     256KiB time=00:00:01.70 bitrate=1233.8kbits/s speed=0.0121x elapsed=0:02:19.98    \nframe=   53 fps=0.4 q=47.1 size=     256KiB time=00:00:01.70 bitrate=1233.8kbits/s speed=0.0121x elapsed=0:02:20.49    \nframe=   54 fps=0.4 q=48.8 size=     256KiB time=00:00:01.73 bitrate=1210.1kbits/s speed=0.0123x elapsed=0:02:21.01    \nframe=   54 fps=0.4 q=48.8 size=     256KiB time=00:00:01.73 bitrate=1210.1kbits/s speed=0.0122x elapsed=0:02:21.54    \nframe=   54 fps=0.4 q=48.8 size=     256KiB time=00:00:01.73 bitrate=1210.1kbits/s speed=0.0122x elapsed=0:02:22.05    \nframe=   54 fps=0.4 q=48.8 size=     256KiB time=00:00:01.73 bitrate=1210.1kbits/s speed=0.0122x elapsed=0:02:22.56    \nframe=   55 fps=0.4 q=48.7 size=     256KiB time=00:00:01.76 bitrate=1187.3kbits/s speed=0.0123x elapsed=0:02:23.09    \nframe=   55 fps=0.4 q=48.7 size=     256KiB time=00:00:01.76 bitrate=1187.3kbits/s speed=0.0123x elapsed=0:02:23.61    \nframe=   55 fps=0.4 q=48.7 size=     256KiB time=00:00:01.76 bitrate=1187.3kbits/s speed=0.0123x elapsed=0:02:24.12    \nframe=   55 fps=0.4 q=48.7 size=     256KiB time=00:00:01.76 bitrate=1187.3kbits/s speed=0.0122x elapsed=0:02:24.64    \nframe=   55 fps=0.4 q=48.7 size=     256KiB time=00:00:01.76 bitrate=1187.3kbits/s speed=0.0122x elapsed=0:02:25.15    \nframe=   55 fps=0.4 q=48.7 size=     256KiB time=00:00:01.76 bitrate=1187.3kbits/s speed=0.0121x elapsed=0:02:25.67    \nframe=   55 fps=0.4 q=48.7 size=     256KiB time=00:00:01.76 bitrate=1187.3kbits/s speed=0.0121x elapsed=0:02:26.20    \nframe=   56 fps=0.4 q=48.6 size=     256KiB time=00:00:01.80 bitrate=1165.3kbits/s speed=0.0123x elapsed=0:02:26.72    \nframe=   56 fps=0.4 q=48.6 size=     256KiB time=00:00:01.80 bitrate=1165.3kbits/s speed=0.0122x elapsed=0:02:27.25    \nframe=   56 fps=0.4 q=48.6 size=     256KiB time=00:00:01.80 bitrate=1165.3kbits/s speed=0.0122x elapsed=0:02:27.76    \nframe=   57 fps=0.4 q=45.9 size=     256KiB time=00:00:01.83 bitrate=1144.1kbits/s speed=0.0124x elapsed=0:02:28.31    \nframe=   57 fps=0.4 q=45.9 size=     256KiB time=00:00:01.83 bitrate=1144.1kbits/s speed=0.0123x elapsed=0:02:28.83    \nframe=   57 fps=0.4 q=45.9 size=     256KiB time=00:00:01.83 bitrate=1144.1kbits/s speed=0.0123x elapsed=0:02:29.36    \nframe=   57 fps=0.4 q=45.9 size=     256KiB time=00:00:01.83 bitrate=1144.1kbits/s speed=0.0122x elapsed=0:02:29.90    \nframe=   57 fps=0.4 q=45.9 size=     256KiB time=00:00:01.83 bitrate=1144.1kbits/s speed=0.0122x elapsed=0:02:30.43    \nframe=   57 fps=0.4 q=45.9 size=     256KiB time=00:00:01.83 bitrate=1144.1kbits/s speed=0.0121x elapsed=0:02:30.95    \nframe=   58 fps=0.4 q=46.8 size=     256KiB time=00:00:01.86 bitrate=1123.7kbits/s speed=0.0123x elapsed=0:02:31.47    \nframe=   58 fps=0.4 q=46.8 size=     256KiB time=00:00:01.86 bitrate=1123.7kbits/s speed=0.0123x elapsed=0:02:31.98    \nframe=   59 fps=0.4 q=49.3 size=     256KiB time=00:00:01.90 bitrate=1103.9kbits/s speed=0.0125x elapsed=0:02:32.50    \nframe=   60 fps=0.4 q=48.8 size=     256KiB time=00:00:01.93 bitrate=1084.9kbits/s speed=0.0126x elapsed=0:02:33.03    \nframe=   60 fps=0.4 q=48.8 size=     256KiB time=00:00:01.93 bitrate=1084.9kbits/s speed=0.0126x elapsed=0:02:33.57    \nframe=   60 fps=0.4 q=48.8 size=     256KiB time=00:00:01.93 bitrate=1084.9kbits/s speed=0.0125x elapsed=0:02:34.15    \nframe=   60 fps=0.4 q=48.8 size=     256KiB time=00:00:01.93 bitrate=1084.9kbits/s speed=0.0125x elapsed=0:02:34.72    \nframe=   61 fps=0.4 q=48.4 size=     256KiB time=00:00:01.96 bitrate=1066.5kbits/s speed=0.0127x elapsed=0:02:35.24    \nframe=   61 fps=0.4 q=48.4 size=     256KiB time=00:00:01.96 bitrate=1066.5kbits/s speed=0.0126x elapsed=0:02:35.77    \nframe=   61 fps=0.4 q=48.4 size=     256KiB time=00:00:01.96 bitrate=1066.5kbits/s speed=0.0126x elapsed=0:02:36.35    \nframe=   61 fps=0.4 q=48.4 size=     256KiB time=00:00:01.96 bitrate=1066.5kbits/s speed=0.0125x elapsed=0:02:36.86    \nframe=   61 fps=0.4 q=48.4 size=     256KiB time=00:00:01.96 bitrate=1066.5kbits/s speed=0.0125x elapsed=0:02:37.39    \nframe=   62 fps=0.4 q=45.7 size=     256KiB time=00:00:02.00 bitrate=1048.8kbits/s speed=0.0127x elapsed=0:02:37.92    \nframe=   62 fps=0.4 q=45.7 size=     256KiB time=00:00:02.00 bitrate=1048.8kbits/s speed=0.0126x elapsed=0:02:38.46    \nframe=   63 fps=0.4 q=47.3 size=     512KiB time=00:00:02.03 bitrate=2062.9kbits/s speed=0.0128x elapsed=0:02:38.99    \nframe=   63 fps=0.4 q=47.3 size=     512KiB time=00:00:02.03 bitrate=2062.9kbits/s speed=0.0127x elapsed=0:02:39.52    \nframe=   63 fps=0.4 q=47.3 size=     512KiB time=00:00:02.03 bitrate=2062.9kbits/s speed=0.0127x elapsed=0:02:40.05    \nframe=   63 fps=0.4 q=47.3 size=     512KiB time=00:00:02.03 bitrate=2062.9kbits/s speed=0.0127x elapsed=0:02:40.58    \nframe=   63 fps=0.4 q=47.3 size=     512KiB time=00:00:02.03 bitrate=2062.9kbits/s speed=0.0126x elapsed=0:02:41.15    \nframe=   64 fps=0.4 q=48.7 size=     512KiB time=00:00:02.06 bitrate=2029.7kbits/s speed=0.0128x elapsed=0:02:41.69    \nframe=   64 fps=0.4 q=48.7 size=     512KiB time=00:00:02.06 bitrate=2029.7kbits/s speed=0.0127x elapsed=0:02:42.20    \nframe=   64 fps=0.4 q=48.7 size=     512KiB time=00:00:02.06 bitrate=2029.7kbits/s speed=0.0127x elapsed=0:02:42.72    \nframe=   65 fps=0.4 q=48.7 size=     512KiB time=00:00:02.10 bitrate=1997.5kbits/s speed=0.0129x elapsed=0:02:43.24    \nframe=   65 fps=0.4 q=48.7 size=     512KiB time=00:00:02.10 bitrate=1997.5kbits/s speed=0.0128x elapsed=0:02:43.76    \nframe=   65 fps=0.4 q=48.7 size=     512KiB time=00:00:02.10 bitrate=1997.5kbits/s speed=0.0128x elapsed=0:02:44.28    \nframe=   66 fps=0.4 q=45.6 size=     512KiB time=00:00:02.13 bitrate=1966.2kbits/s speed=0.0129x elapsed=0:02:44.80    \nframe=   66 fps=0.4 q=45.6 size=     512KiB time=00:00:02.13 bitrate=1966.2kbits/s speed=0.0129x elapsed=0:02:45.33    \nframe=   66 fps=0.4 q=45.6 size=     512KiB time=00:00:02.13 bitrate=1966.2kbits/s speed=0.0129x elapsed=0:02:45.86    \nframe=   67 fps=0.4 q=47.0 size=     512KiB time=00:00:02.16 bitrate=1936.0kbits/s speed=0.013x elapsed=0:02:46.38    \nframe=   67 fps=0.4 q=47.0 size=     512KiB time=00:00:02.16 bitrate=1936.0kbits/s speed=0.013x elapsed=0:02:46.90    \nframe=   68 fps=0.4 q=48.7 size=     512KiB time=00:00:02.20 bitrate=1906.7kbits/s speed=0.0131x elapsed=0:02:47.41    \nframe=   68 fps=0.4 q=48.7 size=     512KiB time=00:00:02.20 bitrate=1906.7kbits/s speed=0.0131x elapsed=0:02:47.92    \nframe=   68 fps=0.4 q=48.7 size=     512KiB time=00:00:02.20 bitrate=1906.7kbits/s speed=0.0131x elapsed=0:02:48.46    \nframe=   68 fps=0.4 q=48.7 size=     512KiB time=00:00:02.20 bitrate=1906.7kbits/s speed=0.013x elapsed=0:02:49.00    \nframe=   69 fps=0.4 q=48.5 size=     512KiB time=00:00:02.23 bitrate=1878.2kbits/s speed=0.0132x elapsed=0:02:49.53    \nframe=   69 fps=0.4 q=48.5 size=     512KiB time=00:00:02.23 bitrate=1878.2kbits/s speed=0.0131x elapsed=0:02:50.06    \nframe=   69 fps=0.4 q=48.5 size=     512KiB time=00:00:02.23 bitrate=1878.2kbits/s speed=0.0131x elapsed=0:02:50.61    \nframe=   69 fps=0.4 q=48.5 size=     512KiB time=00:00:02.23 bitrate=1878.2kbits/s speed=0.013x elapsed=0:02:51.18    \nframe=   69 fps=0.4 q=48.5 size=     512KiB time=00:00:02.23 bitrate=1878.2kbits/s speed=0.013x elapsed=0:02:51.75    \nframe=   69 fps=0.4 q=48.5 size=     512KiB time=00:00:02.23 bitrate=1878.2kbits/s speed=0.013x elapsed=0:02:52.31    \nframe=   69 fps=0.4 q=48.5 size=     512KiB time=00:00:02.23 bitrate=1878.2kbits/s speed=0.0129x elapsed=0:02:52.86    \nframe=   69 fps=0.4 q=48.5 size=     512KiB time=00:00:02.23 bitrate=1878.2kbits/s speed=0.0129x elapsed=0:02:53.40    \nframe=   69 fps=0.4 q=48.5 size=     512KiB time=00:00:02.23 bitrate=1878.2kbits/s speed=0.0128x elapsed=0:02:53.96    \nframe=   70 fps=0.4 q=48.7 size=     512KiB time=00:00:02.26 bitrate=1850.6kbits/s speed=0.013x elapsed=0:02:54.46    \nframe=   70 fps=0.4 q=48.7 size=     512KiB time=00:00:02.26 bitrate=1850.6kbits/s speed=0.013x elapsed=0:02:54.99    \nframe=   70 fps=0.4 q=48.7 size=     512KiB time=00:00:02.26 bitrate=1850.6kbits/s speed=0.0129x elapsed=0:02:55.53    \nframe=   71 fps=0.4 q=45.9 size=     512KiB time=00:00:02.30 bitrate=1823.8kbits/s speed=0.0131x elapsed=0:02:56.07    \nframe=   72 fps=0.4 q=47.3 size=     512KiB time=00:00:02.33 bitrate=1797.7kbits/s speed=0.0132x elapsed=0:02:56.60    \nframe=   72 fps=0.4 q=47.3 size=     512KiB time=00:00:02.33 bitrate=1797.7kbits/s speed=0.0132x elapsed=0:02:57.19    \nframe=   72 fps=0.4 q=47.3 size=     512KiB time=00:00:02.33 bitrate=1797.7kbits/s speed=0.0131x elapsed=0:02:57.71    \nframe=   72 fps=0.4 q=47.3 size=     512KiB time=00:00:02.33 bitrate=1797.7kbits/s speed=0.0131x elapsed=0:02:58.23    \nframe=   72 fps=0.4 q=47.3 size=     512KiB time=00:00:02.33 bitrate=1797.7kbits/s speed=0.0131x elapsed=0:02:58.76    \nframe=   73 fps=0.4 q=48.7 size=     512KiB time=00:00:02.36 bitrate=1772.4kbits/s speed=0.0132x elapsed=0:02:59.28    \nframe=   74 fps=0.4 q=48.5 size=     512KiB time=00:00:02.40 bitrate=1747.8kbits/s speed=0.0133x elapsed=0:02:59.82    \nframe=   74 fps=0.4 q=48.5 size=     512KiB time=00:00:02.40 bitrate=1747.8kbits/s speed=0.0133x elapsed=0:03:00.36    \nframe=   74 fps=0.4 q=48.5 size=     512KiB time=00:00:02.40 bitrate=1747.8kbits/s speed=0.0133x elapsed=0:03:00.87    \nframe=   74 fps=0.4 q=48.5 size=     512KiB time=00:00:02.40 bitrate=1747.8kbits/s speed=0.0132x elapsed=0:03:01.39    \nframe=   74 fps=0.4 q=48.5 size=     512KiB time=00:00:02.40 bitrate=1747.8kbits/s speed=0.0132x elapsed=0:03:01.93    \nframe=   74 fps=0.4 q=48.5 size=     512KiB time=00:00:02.40 bitrate=1747.8kbits/s speed=0.0132x elapsed=0:03:02.48    \nframe=   74 fps=0.4 q=48.5 size=     512KiB time=00:00:02.40 bitrate=1747.8kbits/s speed=0.0131x elapsed=0:03:03.01    \nframe=   74 fps=0.4 q=48.5 size=     512KiB time=00:00:02.40 bitrate=1747.8kbits/s speed=0.0131x elapsed=0:03:03.56    \nframe=   74 fps=0.4 q=48.5 size=     512KiB time=00:00:02.40 bitrate=1747.8kbits/s speed=0.013x elapsed=0:03:04.09    \nframe=   75 fps=0.4 q=45.6 size=     512KiB time=00:00:02.43 bitrate=1723.8kbits/s speed=0.0132x elapsed=0:03:04.60    \nframe=   75 fps=0.4 q=45.6 size=     512KiB time=00:00:02.43 bitrate=1723.8kbits/s speed=0.0131x elapsed=0:03:05.12    \nframe=   76 fps=0.4 q=46.4 size=     512KiB time=00:00:02.46 bitrate=1700.5kbits/s speed=0.0133x elapsed=0:03:05.64    \nframe=   76 fps=0.4 q=46.4 size=     512KiB time=00:00:02.46 bitrate=1700.5kbits/s speed=0.0132x elapsed=0:03:06.17    \nframe=   77 fps=0.4 q=48.4 size=     512KiB time=00:00:02.50 bitrate=1677.9kbits/s speed=0.0134x elapsed=0:03:06.70    \nframe=   77 fps=0.4 q=48.4 size=     512KiB time=00:00:02.50 bitrate=1677.9kbits/s speed=0.0134x elapsed=0:03:07.22    \nframe=   77 fps=0.4 q=48.4 size=     512KiB time=00:00:02.50 bitrate=1677.9kbits/s speed=0.0133x elapsed=0:03:07.74    \nframe=   78 fps=0.4 q=48.3 size=     512KiB time=00:00:02.53 bitrate=1655.8kbits/s speed=0.0135x elapsed=0:03:08.28    \nframe=   78 fps=0.4 q=48.3 size=     512KiB time=00:00:02.53 bitrate=1655.8kbits/s speed=0.0134x elapsed=0:03:08.80    \nframe=   78 fps=0.4 q=48.3 size=     512KiB time=00:00:02.53 bitrate=1655.8kbits/s speed=0.0134x elapsed=0:03:09.34    \nframe=   78 fps=0.4 q=48.3 size=     512KiB time=00:00:02.53 bitrate=1655.8kbits/s speed=0.0133x elapsed=0:03:09.86    \nframe=   78 fps=0.4 q=48.3 size=     512KiB time=00:00:02.53 bitrate=1655.8kbits/s speed=0.0133x elapsed=0:03:10.39    \nframe=   78 fps=0.4 q=48.3 size=     512KiB time=00:00:02.53 bitrate=1655.8kbits/s speed=0.0133x elapsed=0:03:10.91    \nframe=   78 fps=0.4 q=48.3 size=     512KiB time=00:00:02.53 bitrate=1655.8kbits/s speed=0.0132x elapsed=0:03:11.42    \nframe=   78 fps=0.4 q=48.3 size=     512KiB time=00:00:02.53 bitrate=1655.8kbits/s speed=0.0132x elapsed=0:03:11.93    \nframe=   79 fps=0.4 q=48.0 size=     512KiB time=00:00:02.56 bitrate=1634.3kbits/s speed=0.0133x elapsed=0:03:12.46    \nframe=   79 fps=0.4 q=48.0 size=     512KiB time=00:00:02.56 bitrate=1634.3kbits/s speed=0.0133x elapsed=0:03:12.98    \nframe=   80 fps=0.4 q=45.3 size=     512KiB time=00:00:02.60 bitrate=1613.3kbits/s speed=0.0134x elapsed=0:03:13.50    \nframe=   80 fps=0.4 q=45.3 size=     512KiB time=00:00:02.60 bitrate=1613.3kbits/s speed=0.0134x elapsed=0:03:14.03    \nframe=   80 fps=0.4 q=45.3 size=     512KiB time=00:00:02.60 bitrate=1613.3kbits/s speed=0.0134x elapsed=0:03:14.55    \nframe=   80 fps=0.4 q=45.3 size=     512KiB time=00:00:02.60 bitrate=1613.3kbits/s speed=0.0133x elapsed=0:03:15.07    \nframe=   80 fps=0.4 q=45.3 size=     512KiB time=00:00:02.60 bitrate=1613.3kbits/s speed=0.0133x elapsed=0:03:15.59    \nframe=   81 fps=0.4 q=46.0 size=     512KiB time=00:00:02.63 bitrate=1592.9kbits/s speed=0.0134x elapsed=0:03:16.11    \nframe=   81 fps=0.4 q=46.0 size=     512KiB time=00:00:02.63 bitrate=1592.9kbits/s speed=0.0134x elapsed=0:03:16.62    \nframe=   81 fps=0.4 q=46.0 size=     512KiB time=00:00:02.63 bitrate=1592.9kbits/s speed=0.0134x elapsed=0:03:17.14    \nframe=   82 fps=0.4 q=47.8 size=     512KiB time=00:00:02.66 bitrate=1573.0kbits/s speed=0.0135x elapsed=0:03:17.67    \nframe=   83 fps=0.4 q=47.8 size=     512KiB time=00:00:02.70 bitrate=1553.6kbits/s speed=0.0136x elapsed=0:03:18.18    \nframe=   83 fps=0.4 q=47.8 size=     512KiB time=00:00:02.70 bitrate=1553.6kbits/s speed=0.0136x elapsed=0:03:18.71    \nframe=   83 fps=0.4 q=47.8 size=     512KiB time=00:00:02.70 bitrate=1553.6kbits/s speed=0.0136x elapsed=0:03:19.23    \nframe=   83 fps=0.4 q=47.8 size=     512KiB time=00:00:02.70 bitrate=1553.6kbits/s speed=0.0135x elapsed=0:03:19.76    \nframe=   83 fps=0.4 q=47.8 size=     512KiB time=00:00:02.70 bitrate=1553.6kbits/s speed=0.0135x elapsed=0:03:20.28    \nframe=   83 fps=0.4 q=47.8 size=     512KiB time=00:00:02.70 bitrate=1553.6kbits/s speed=0.0134x elapsed=0:03:20.81    \nframe=   84 fps=0.4 q=47.6 size=     512KiB time=00:00:02.73 bitrate=1534.6kbits/s speed=0.0136x elapsed=0:03:21.33    \nframe=   84 fps=0.4 q=47.6 size=     512KiB time=00:00:02.73 bitrate=1534.6kbits/s speed=0.0135x elapsed=0:03:21.86    \nframe=   84 fps=0.4 q=47.6 size=     512KiB time=00:00:02.73 bitrate=1534.6kbits/s speed=0.0135x elapsed=0:03:22.39    \nframe=   84 fps=0.4 q=47.6 size=     512KiB time=00:00:02.73 bitrate=1534.6kbits/s speed=0.0135x elapsed=0:03:22.93    \nframe=   84 fps=0.4 q=47.6 size=     512KiB time=00:00:02.73 bitrate=1534.6kbits/s speed=0.0134x elapsed=0:03:23.45    \nframe=   84 fps=0.4 q=47.6 size=     512KiB time=00:00:02.73 bitrate=1534.6kbits/s speed=0.0134x elapsed=0:03:23.98    \nframe=   85 fps=0.4 q=45.3 size=     512KiB time=00:00:02.76 bitrate=1516.1kbits/s speed=0.0135x elapsed=0:03:24.53    \nframe=   85 fps=0.4 q=45.3 size=     512KiB time=00:00:02.76 bitrate=1516.1kbits/s speed=0.0135x elapsed=0:03:25.06    \nframe=   86 fps=0.4 q=46.1 size=     512KiB time=00:00:02.80 bitrate=1498.1kbits/s speed=0.0136x elapsed=0:03:25.57    \nframe=   87 fps=0.4 q=47.6 size=     512KiB time=00:00:02.83 bitrate=1480.5kbits/s speed=0.0137x elapsed=0:03:26.11    \nframe=   87 fps=0.4 q=47.6 size=     512KiB time=00:00:02.83 bitrate=1480.5kbits/s speed=0.0137x elapsed=0:03:26.66    \nframe=   87 fps=0.4 q=47.6 size=     512KiB time=00:00:02.83 bitrate=1480.5kbits/s speed=0.0137x elapsed=0:03:27.24    \nframe=   87 fps=0.4 q=47.6 size=     512KiB time=00:00:02.83 bitrate=1480.5kbits/s speed=0.0136x elapsed=0:03:27.78    \nframe=   87 fps=0.4 q=47.6 size=     512KiB time=00:00:02.83 bitrate=1480.5kbits/s speed=0.0136x elapsed=0:03:28.29    \nframe=   88 fps=0.4 q=47.4 size=     512KiB time=00:00:02.86 bitrate=1463.3kbits/s speed=0.0137x elapsed=0:03:28.81    \nframe=   88 fps=0.4 q=47.4 size=     512KiB time=00:00:02.86 bitrate=1463.3kbits/s speed=0.0137x elapsed=0:03:29.33    \nframe=   88 fps=0.4 q=47.4 size=     512KiB time=00:00:02.86 bitrate=1463.3kbits/s speed=0.0137x elapsed=0:03:29.84    \nframe=   89 fps=0.4 q=47.8 size=     512KiB time=00:00:02.90 bitrate=1446.4kbits/s speed=0.0138x elapsed=0:03:30.37    \nframe=   89 fps=0.4 q=47.8 size=     512KiB time=00:00:02.90 bitrate=1446.4kbits/s speed=0.0138x elapsed=0:03:30.90    \nframe=   89 fps=0.4 q=47.8 size=     512KiB time=00:00:02.90 bitrate=1446.4kbits/s speed=0.0137x elapsed=0:03:31.42    \nframe=   89 fps=0.4 q=47.8 size=     512KiB time=00:00:02.90 bitrate=1446.4kbits/s speed=0.0137x elapsed=0:03:31.95    \nframe=   89 fps=0.4 q=47.8 size=     512KiB time=00:00:02.90 bitrate=1446.4kbits/s speed=0.0136x elapsed=0:03:32.48    \nframe=   89 fps=0.4 q=47.8 size=     512KiB time=00:00:02.90 bitrate=1446.4kbits/s speed=0.0136x elapsed=0:03:33.04    \nframe=   89 fps=0.4 q=47.8 size=     512KiB time=00:00:02.90 bitrate=1446.4kbits/s speed=0.0136x elapsed=0:03:33.54    \nframe=   89 fps=0.4 q=47.8 size=     512KiB time=00:00:02.90 bitrate=1446.4kbits/s speed=0.0135x elapsed=0:03:34.06    \nframe=   89 fps=0.4 q=47.8 size=     512KiB time=00:00:02.90 bitrate=1446.4kbits/s speed=0.0135x elapsed=0:03:34.58    \nframe=   89 fps=0.4 q=47.8 size=     512KiB time=00:00:02.90 bitrate=1446.4kbits/s speed=0.0135x elapsed=0:03:35.13    \nframe=   89 fps=0.4 q=47.8 size=     512KiB time=00:00:02.90 bitrate=1446.4kbits/s speed=0.0134x elapsed=0:03:35.74    \nframe=   89 fps=0.4 q=47.8 size=     512KiB time=00:00:02.90 bitrate=1446.4kbits/s speed=0.0134x elapsed=0:03:36.32    \nframe=   90 fps=0.4 q=45.3 size=     512KiB time=00:00:02.93 bitrate=1430.0kbits/s speed=0.0135x elapsed=0:03:36.87    \nframe=   90 fps=0.4 q=45.3 size=     512KiB time=00:00:02.93 bitrate=1430.0kbits/s speed=0.0135x elapsed=0:03:37.40    \nframe=   90 fps=0.4 q=45.3 size=     512KiB time=00:00:02.93 bitrate=1430.0kbits/s speed=0.0135x elapsed=0:03:37.95    \nframe=   90 fps=0.4 q=45.3 size=     512KiB time=00:00:02.93 bitrate=1430.0kbits/s speed=0.0134x elapsed=0:03:38.50    \nframe=   90 fps=0.4 q=45.3 size=     512KiB time=00:00:02.93 bitrate=1430.0kbits/s speed=0.0134x elapsed=0:03:39.11    \nframe=   90 fps=0.4 q=45.3 size=     512KiB time=00:00:02.93 bitrate=1430.0kbits/s speed=0.0134x elapsed=0:03:39.67    \nframe=   90 fps=0.4 q=45.3 size=     512KiB time=00:00:02.93 bitrate=1430.0kbits/s speed=0.0133x elapsed=0:03:40.33    \nframe=   91 fps=0.4 q=46.4 size=     512KiB time=00:00:02.93 bitrate=1430.0kbits/s speed=0.0133x elapsed=0:03:40.88    \nframe=   91 fps=0.4 q=46.4 size=     512KiB time=00:00:02.96 bitrate=1413.9kbits/s speed=0.0134x elapsed=0:03:41.49    \nframe=   91 fps=0.4 q=46.4 size=     512KiB time=00:00:02.96 bitrate=1413.9kbits/s speed=0.0134x elapsed=0:03:42.08    \nframe=   91 fps=0.4 q=46.4 size=     512KiB time=00:00:02.96 bitrate=1413.9kbits/s speed=0.0133x elapsed=0:03:42.66    \nframe=   92 fps=0.4 q=47.5 size=     512KiB time=00:00:03.00 bitrate=1398.2kbits/s speed=0.0134x elapsed=0:03:43.20    \nframe=   92 fps=0.4 q=47.5 size=     512KiB time=00:00:03.00 bitrate=1398.2kbits/s speed=0.0134x elapsed=0:03:43.75    \nframe=   92 fps=0.4 q=47.5 size=     512KiB time=00:00:03.00 bitrate=1398.2kbits/s speed=0.0134x elapsed=0:03:44.28    \nframe=   92 fps=0.4 q=47.5 size=     512KiB time=00:00:03.00 bitrate=1398.2kbits/s speed=0.0133x elapsed=0:03:44.84    \nframe=   92 fps=0.4 q=47.5 size=     512KiB time=00:00:03.00 bitrate=1398.2kbits/s speed=0.0133x elapsed=0:03:45.42    \nframe=   92 fps=0.4 q=47.5 size=     512KiB time=00:00:03.00 bitrate=1398.2kbits/s speed=0.0133x elapsed=0:03:45.99    \nframe=   93 fps=0.4 q=47.5 size=     512KiB time=00:00:03.03 bitrate=1382.9kbits/s speed=0.0134x elapsed=0:03:46.54    \nframe=   93 fps=0.4 q=47.5 size=     512KiB time=00:00:03.03 bitrate=1382.9kbits/s speed=0.0134x elapsed=0:03:47.11    \nframe=   93 fps=0.4 q=47.5 size=     512KiB time=00:00:03.03 bitrate=1382.9kbits/s speed=0.0133x elapsed=0:03:47.67    \nframe=   94 fps=0.4 q=47.6 size=     512KiB time=00:00:03.06 bitrate=1367.8kbits/s speed=0.0134x elapsed=0:03:48.19    \nframe=   94 fps=0.4 q=47.6 size=     512KiB time=00:00:03.06 bitrate=1367.8kbits/s speed=0.0134x elapsed=0:03:48.70    \nframe=   94 fps=0.4 q=47.6 size=     512KiB time=00:00:03.06 bitrate=1367.8kbits/s speed=0.0134x elapsed=0:03:49.22    \nframe=   95 fps=0.4 q=45.1 size=     512KiB time=00:00:03.10 bitrate=1353.1kbits/s speed=0.0135x elapsed=0:03:49.74    \nframe=   95 fps=0.4 q=45.1 size=     512KiB time=00:00:03.10 bitrate=1353.1kbits/s speed=0.0135x elapsed=0:03:50.27    \nframe=   96 fps=0.4 q=46.4 size=     512KiB time=00:00:03.13 bitrate=1338.7kbits/s speed=0.0136x elapsed=0:03:50.78    \nframe=   96 fps=0.4 q=46.4 size=     512KiB time=00:00:03.13 bitrate=1338.7kbits/s speed=0.0135x elapsed=0:03:51.30    \nframe=   97 fps=0.4 q=47.3 size=     768KiB time=00:00:03.16 bitrate=1986.9kbits/s speed=0.0137x elapsed=0:03:51.81    \nframe=   97 fps=0.4 q=47.3 size=     768KiB time=00:00:03.16 bitrate=1986.9kbits/s speed=0.0136x elapsed=0:03:52.35    \nframe=   97 fps=0.4 q=47.3 size=     768KiB time=00:00:03.16 bitrate=1986.9kbits/s speed=0.0136x elapsed=0:03:52.87    \nframe=   97 fps=0.4 q=47.3 size=     768KiB time=00:00:03.16 bitrate=1986.9kbits/s speed=0.0136x elapsed=0:03:53.39    \nframe=   97 fps=0.4 q=47.3 size=     768KiB time=00:00:03.16 bitrate=1986.9kbits/s speed=0.0135x elapsed=0:03:53.91    \nframe=   98 fps=0.4 q=47.6 size=     768KiB time=00:00:03.20 bitrate=1966.2kbits/s speed=0.0136x elapsed=0:03:54.46    \nframe=   99 fps=0.4 q=47.6 size=     768KiB time=00:00:03.23 bitrate=1945.9kbits/s speed=0.0138x elapsed=0:03:54.99    \nframe=   99 fps=0.4 q=47.6 size=     768KiB time=00:00:03.23 bitrate=1945.9kbits/s speed=0.0137x elapsed=0:03:55.51    \nframe=   99 fps=0.4 q=47.6 size=     768KiB time=00:00:03.23 bitrate=1945.9kbits/s speed=0.0137x elapsed=0:03:56.03    \nframe=   99 fps=0.4 q=47.6 size=     768KiB time=00:00:03.23 bitrate=1945.9kbits/s speed=0.0137x elapsed=0:03:56.58    \nframe=   99 fps=0.4 q=47.6 size=     768KiB time=00:00:03.23 bitrate=1945.9kbits/s speed=0.0136x elapsed=0:03:57.10    \nframe=  100 fps=0.4 q=45.0 size=     768KiB time=00:00:03.26 bitrate=1926.1kbits/s speed=0.0137x elapsed=0:03:57.63    \nframe=  100 fps=0.4 q=45.0 size=     768KiB time=00:00:03.26 bitrate=1926.1kbits/s speed=0.0137x elapsed=0:03:58.17    \nframe=  100 fps=0.4 q=45.0 size=     768KiB time=00:00:03.26 bitrate=1926.1kbits/s speed=0.0137x elapsed=0:03:58.68    \nframe=  100 fps=0.4 q=45.0 size=     768KiB time=00:00:03.26 bitrate=1926.1kbits/s speed=0.0137x elapsed=0:03:59.20    \nframe=  101 fps=0.4 q=46.1 size=     768KiB time=00:00:03.30 bitrate=1906.6kbits/s speed=0.0138x elapsed=0:03:59.73    \nframe=  101 fps=0.4 q=46.1 size=     768KiB time=00:00:03.30 bitrate=1906.6kbits/s speed=0.0137x elapsed=0:04:00.25    \nframe=  101 fps=0.4 q=46.1 size=     768KiB time=00:00:03.30 bitrate=1906.6kbits/s speed=0.0137x elapsed=0:04:00.76    \nframe=  101 fps=0.4 q=46.1 size=     768KiB time=00:00:03.30 bitrate=1906.6kbits/s speed=0.0137x elapsed=0:04:01.29    \nframe=  101 fps=0.4 q=46.1 size=     768KiB time=00:00:03.30 bitrate=1906.6kbits/s speed=0.0136x elapsed=0:04:01.81    \nframe=  102 fps=0.4 q=47.3 size=     768KiB time=00:00:03.33 bitrate=1887.5kbits/s speed=0.0138x elapsed=0:04:02.35    \nframe=  102 fps=0.4 q=47.3 size=     768KiB time=00:00:03.33 bitrate=1887.5kbits/s speed=0.0137x elapsed=0:04:02.97    \nframe=  102 fps=0.4 q=47.3 size=     768KiB time=00:00:03.33 bitrate=1887.5kbits/s speed=0.0137x elapsed=0:04:03.64    \nframe=  102 fps=0.4 q=47.3 size=     768KiB time=00:00:03.33 bitrate=1887.5kbits/s speed=0.0136x elapsed=0:04:04.29    \nframe=  103 fps=0.4 q=47.4 size=     768KiB time=00:00:03.36 bitrate=1868.9kbits/s speed=0.0137x elapsed=0:04:04.88    \nframe=  103 fps=0.4 q=47.4 size=     768KiB time=00:00:03.36 bitrate=1868.9kbits/s speed=0.0137x elapsed=0:04:05.45    \nframe=  103 fps=0.4 q=47.4 size=     768KiB time=00:00:03.36 bitrate=1868.9kbits/s speed=0.0137x elapsed=0:04:05.98    \nframe=  103 fps=0.4 q=47.4 size=     768KiB time=00:00:03.36 bitrate=1868.9kbits/s speed=0.0137x elapsed=0:04:06.50    \nframe=  103 fps=0.4 q=47.4 size=     768KiB time=00:00:03.36 bitrate=1868.9kbits/s speed=0.0136x elapsed=0:04:07.05    \nframe=  103 fps=0.4 q=47.4 size=     768KiB time=00:00:03.36 bitrate=1868.9kbits/s speed=0.0136x elapsed=0:04:07.57    \nframe=  103 fps=0.4 q=47.4 size=     768KiB time=00:00:03.36 bitrate=1868.9kbits/s speed=0.0136x elapsed=0:04:08.11    \nframe=  103 fps=0.4 q=47.4 size=     768KiB time=00:00:03.36 bitrate=1868.9kbits/s speed=0.0135x elapsed=0:04:08.68    \nframe=  103 fps=0.4 q=47.4 size=     768KiB time=00:00:03.36 bitrate=1868.9kbits/s speed=0.0135x elapsed=0:04:09.23    \nframe=  103 fps=0.4 q=47.4 size=     768KiB time=00:00:03.36 bitrate=1868.9kbits/s speed=0.0135x elapsed=0:04:09.75    \nframe=  103 fps=0.4 q=47.4 size=     768KiB time=00:00:03.36 bitrate=1868.9kbits/s speed=0.0135x elapsed=0:04:10.27    \nframe=  104 fps=0.4 q=47.3 size=     768KiB time=00:00:03.40 bitrate=1850.5kbits/s speed=0.0136x elapsed=0:04:10.83    \nframe=  104 fps=0.4 q=47.3 size=     768KiB time=00:00:03.40 bitrate=1850.5kbits/s speed=0.0135x elapsed=0:04:11.38    \nframe=  104 fps=0.4 q=47.3 size=     768KiB time=00:00:03.40 bitrate=1850.5kbits/s speed=0.0135x elapsed=0:04:11.93    \nframe=  104 fps=0.4 q=47.3 size=     768KiB time=00:00:03.40 bitrate=1850.5kbits/s speed=0.0135x elapsed=0:04:12.47    \nframe=  104 fps=0.4 q=47.3 size=     768KiB time=00:00:03.40 bitrate=1850.5kbits/s speed=0.0134x elapsed=0:04:13.01    \nframe=  104 fps=0.4 q=47.3 size=     768KiB time=00:00:03.40 bitrate=1850.5kbits/s speed=0.0134x elapsed=0:04:13.55    \nframe=  104 fps=0.4 q=47.3 size=     768KiB time=00:00:03.40 bitrate=1850.5kbits/s speed=0.0134x elapsed=0:04:14.06    \nframe=  104 fps=0.4 q=47.3 size=     768KiB time=00:00:03.40 bitrate=1850.5kbits/s speed=0.0134x elapsed=0:04:14.60    \nframe=  104 fps=0.4 q=47.3 size=     768KiB time=00:00:03.40 bitrate=1850.5kbits/s speed=0.0133x elapsed=0:04:15.13    \nframe=  104 fps=0.4 q=47.3 size=     768KiB time=00:00:03.40 bitrate=1850.5kbits/s speed=0.0133x elapsed=0:04:15.66    \nframe=  104 fps=0.4 q=47.3 size=     768KiB time=00:00:03.40 bitrate=1850.5kbits/s speed=0.0133x elapsed=0:04:16.20    \nframe=  104 fps=0.4 q=47.3 size=     768KiB time=00:00:03.40 bitrate=1850.5kbits/s speed=0.0132x elapsed=0:04:16.74    \nframe=  104 fps=0.4 q=47.3 size=     768KiB time=00:00:03.40 bitrate=1850.5kbits/s speed=0.0132x elapsed=0:04:17.26    \nframe=  104 fps=0.4 q=47.3 size=     768KiB time=00:00:03.40 bitrate=1850.5kbits/s speed=0.0132x elapsed=0:04:17.80    \nframe=  104 fps=0.4 q=47.3 size=     768KiB time=00:00:03.40 bitrate=1850.5kbits/s speed=0.0132x elapsed=0:04:18.34    \nframe=  104 fps=0.4 q=47.3 size=     768KiB time=00:00:03.40 bitrate=1850.5kbits/s speed=0.0131x elapsed=0:04:18.88    \nframe=  104 fps=0.4 q=47.3 size=     768KiB time=00:00:03.40 bitrate=1850.5kbits/s speed=0.0131x elapsed=0:04:19.45    \nframe=  104 fps=0.4 q=47.3 size=     768KiB time=00:00:03.40 bitrate=1850.5kbits/s speed=0.0131x elapsed=0:04:19.98    \nframe=  104 fps=0.4 q=47.3 size=     768KiB time=00:00:03.40 bitrate=1850.5kbits/s speed=0.0131x elapsed=0:04:20.53    \nframe=  105 fps=0.4 q=44.9 size=     768KiB time=00:00:03.43 bitrate=1832.6kbits/s speed=0.0132x elapsed=0:04:21.08    \nframe=  105 fps=0.4 q=44.9 size=     768KiB time=00:00:03.43 bitrate=1832.6kbits/s speed=0.0131x elapsed=0:04:21.61    \nframe=  106 fps=0.4 q=45.7 size=     768KiB time=00:00:03.46 bitrate=1814.9kbits/s speed=0.0132x elapsed=0:04:22.17    \nframe=  106 fps=0.4 q=45.7 size=     768KiB time=00:00:03.46 bitrate=1814.9kbits/s speed=0.0132x elapsed=0:04:22.67    \nframe=  106 fps=0.4 q=45.7 size=     768KiB time=00:00:03.46 bitrate=1814.9kbits/s speed=0.0132x elapsed=0:04:23.20    \nframe=  106 fps=0.4 q=45.7 size=     768KiB time=00:00:03.46 bitrate=1814.9kbits/s speed=0.0131x elapsed=0:04:23.72    \nframe=  106 fps=0.4 q=45.7 size=     768KiB time=00:00:03.46 bitrate=1814.9kbits/s speed=0.0131x elapsed=0:04:24.30    \nframe=  106 fps=0.4 q=45.7 size=     768KiB time=00:00:03.46 bitrate=1814.9kbits/s speed=0.0131x elapsed=0:04:24.91    \nframe=  106 fps=0.4 q=45.7 size=     768KiB time=00:00:03.46 bitrate=1814.9kbits/s speed=0.0131x elapsed=0:04:25.51    \nframe=  106 fps=0.4 q=45.7 size=     768KiB time=00:00:03.46 bitrate=1814.9kbits/s speed=0.013x elapsed=0:04:26.12    \nframe=  107 fps=0.4 q=47.2 size=     768KiB time=00:00:03.50 bitrate=1797.7kbits/s speed=0.0131x elapsed=0:04:26.75    \nframe=  107 fps=0.4 q=47.2 size=     768KiB time=00:00:03.50 bitrate=1797.7kbits/s speed=0.0131x elapsed=0:04:27.36    \nframe=  107 fps=0.4 q=47.2 size=     768KiB time=00:00:03.50 bitrate=1797.7kbits/s speed=0.0131x elapsed=0:04:28.01    \nframe=  107 fps=0.4 q=47.2 size=     768KiB time=00:00:03.50 bitrate=1797.7kbits/s speed=0.013x elapsed=0:04:28.64    \nframe=  107 fps=0.4 q=47.2 size=     768KiB time=00:00:03.50 bitrate=1797.7kbits/s speed=0.013x elapsed=0:04:29.21    \nframe=  107 fps=0.4 q=47.2 size=     768KiB time=00:00:03.50 bitrate=1797.7kbits/s speed=0.013x elapsed=0:04:29.78    \nframe=  107 fps=0.4 q=47.2 size=     768KiB time=00:00:03.50 bitrate=1797.7kbits/s speed=0.0129x elapsed=0:04:30.38    \nframe=  107 fps=0.4 q=47.2 size=     768KiB time=00:00:03.50 bitrate=1797.7kbits/s speed=0.0129x elapsed=0:04:30.96    \nframe=  108 fps=0.4 q=46.9 size=     768KiB time=00:00:03.53 bitrate=1780.7kbits/s speed=0.013x elapsed=0:04:31.57    \nframe=  108 fps=0.4 q=46.9 size=     768KiB time=00:00:03.53 bitrate=1780.7kbits/s speed=0.013x elapsed=0:04:32.13    \nframe=  108 fps=0.4 q=46.9 size=     768KiB time=00:00:03.53 bitrate=1780.7kbits/s speed=0.013x elapsed=0:04:32.68    \nframe=  108 fps=0.4 q=46.9 size=     768KiB time=00:00:03.53 bitrate=1780.7kbits/s speed=0.0129x elapsed=0:04:33.23    \nframe=  108 fps=0.4 q=46.9 size=     768KiB time=00:00:03.53 bitrate=1780.7kbits/s speed=0.0129x elapsed=0:04:33.84    \nframe=  108 fps=0.4 q=46.9 size=     768KiB time=00:00:03.53 bitrate=1780.7kbits/s speed=0.0129x elapsed=0:04:34.49    \nframe=  108 fps=0.4 q=46.9 size=     768KiB time=00:00:03.53 bitrate=1780.7kbits/s speed=0.0128x elapsed=0:04:35.07    \nframe=  109 fps=0.4 q=47.0 size=     768KiB time=00:00:03.56 bitrate=1764.1kbits/s speed=0.0129x elapsed=0:04:35.63    \nframe=  109 fps=0.4 q=47.0 size=     768KiB time=00:00:03.56 bitrate=1764.1kbits/s speed=0.0129x elapsed=0:04:36.19    \nframe=  109 fps=0.4 q=47.0 size=     768KiB time=00:00:03.56 bitrate=1764.1kbits/s speed=0.0129x elapsed=0:04:36.76    \nframe=  109 fps=0.4 q=47.0 size=     768KiB time=00:00:03.56 bitrate=1764.1kbits/s speed=0.0129x elapsed=0:04:37.32    \nframe=  109 fps=0.4 q=47.0 size=     768KiB time=00:00:03.56 bitrate=1764.1kbits/s speed=0.0128x elapsed=0:04:37.86    \nframe=  109 fps=0.4 q=47.0 size=     768KiB time=00:00:03.56 bitrate=1764.1kbits/s speed=0.0128x elapsed=0:04:38.39    \nframe=  109 fps=0.4 q=47.0 size=     768KiB time=00:00:03.56 bitrate=1764.1kbits/s speed=0.0128x elapsed=0:04:38.92    \nframe=  109 fps=0.4 q=47.0 size=     768KiB time=00:00:03.56 bitrate=1764.1kbits/s speed=0.0128x elapsed=0:04:39.44    \nframe=  109 fps=0.4 q=47.0 size=     768KiB time=00:00:03.56 bitrate=1764.1kbits/s speed=0.0127x elapsed=0:04:40.02    \nframe=  109 fps=0.4 q=47.0 size=     768KiB time=00:00:03.56 bitrate=1764.1kbits/s speed=0.0127x elapsed=0:04:40.60    \nframe=  109 fps=0.4 q=47.0 size=     768KiB time=00:00:03.56 bitrate=1764.1kbits/s speed=0.0127x elapsed=0:04:41.20    \nframe=  109 fps=0.4 q=47.0 size=     768KiB time=00:00:03.56 bitrate=1764.1kbits/s speed=0.0127x elapsed=0:04:41.75    \nframe=  109 fps=0.4 q=47.0 size=     768KiB time=00:00:03.56 bitrate=1764.1kbits/s speed=0.0126x elapsed=0:04:42.27    \nframe=  110 fps=0.4 q=44.6 size=     768KiB time=00:00:03.60 bitrate=1747.7kbits/s speed=0.0127x elapsed=0:04:42.81    \nframe=  110 fps=0.4 q=44.6 size=     768KiB time=00:00:03.60 bitrate=1747.7kbits/s speed=0.0127x elapsed=0:04:43.38    \nframe=  110 fps=0.4 q=44.6 size=     768KiB time=00:00:03.60 bitrate=1747.7kbits/s speed=0.0127x elapsed=0:04:43.94    \nframe=  110 fps=0.4 q=44.6 size=     768KiB time=00:00:03.60 bitrate=1747.7kbits/s speed=0.0127x elapsed=0:04:44.52    \nframe=  110 fps=0.4 q=44.6 size=     768KiB time=00:00:03.60 bitrate=1747.7kbits/s speed=0.0126x elapsed=0:04:45.13    \nframe=  110 fps=0.4 q=44.6 size=     768KiB time=00:00:03.60 bitrate=1747.7kbits/s speed=0.0126x elapsed=0:04:45.69    \nframe=  111 fps=0.4 q=45.8 size=     768KiB time=00:00:03.63 bitrate=1731.7kbits/s speed=0.0127x elapsed=0:04:46.28    \nframe=  111 fps=0.4 q=45.8 size=     768KiB time=00:00:03.63 bitrate=1731.7kbits/s speed=0.0127x elapsed=0:04:46.89    \nframe=  111 fps=0.4 q=45.8 size=     768KiB time=00:00:03.63 bitrate=1731.7kbits/s speed=0.0126x elapsed=0:04:47.44    \nframe=  111 fps=0.4 q=45.8 size=     768KiB time=00:00:03.63 bitrate=1731.7kbits/s speed=0.0126x elapsed=0:04:48.05    \nframe=  111 fps=0.4 q=45.8 size=     768KiB time=00:00:03.63 bitrate=1731.7kbits/s speed=0.0126x elapsed=0:04:48.59    \nframe=  111 fps=0.4 q=45.8 size=     768KiB time=00:00:03.63 bitrate=1731.7kbits/s speed=0.0126x elapsed=0:04:49.20    \nframe=  111 fps=0.4 q=45.8 size=     768KiB time=00:00:03.63 bitrate=1731.7kbits/s speed=0.0125x elapsed=0:04:49.75    \nframe=  111 fps=0.4 q=45.8 size=     768KiB time=00:00:03.63 bitrate=1731.7kbits/s speed=0.0125x elapsed=0:04:50.29    \nframe=  111 fps=0.4 q=45.8 size=     768KiB time=00:00:03.63 bitrate=1731.7kbits/s speed=0.0125x elapsed=0:04:50.84    \nframe=  111 fps=0.4 q=45.8 size=     768KiB time=00:00:03.63 bitrate=1731.7kbits/s speed=0.0125x elapsed=0:04:51.38    \nframe=  111 fps=0.4 q=45.8 size=     768KiB time=00:00:03.63 bitrate=1731.7kbits/s speed=0.0124x elapsed=0:04:51.93    \nframe=  112 fps=0.4 q=46.9 size=     768KiB time=00:00:03.66 bitrate=1715.9kbits/s speed=0.0125x elapsed=0:04:52.53    \nframe=  112 fps=0.4 q=46.9 size=     768KiB time=00:00:03.66 bitrate=1715.9kbits/s speed=0.0125x elapsed=0:04:53.11    \nframe=  112 fps=0.4 q=46.9 size=     768KiB time=00:00:03.66 bitrate=1715.9kbits/s speed=0.0125x elapsed=0:04:53.66    \nframe=  112 fps=0.4 q=46.9 size=     768KiB time=00:00:03.66 bitrate=1715.9kbits/s speed=0.0125x elapsed=0:04:54.23    \nframe=  112 fps=0.4 q=46.9 size=     768KiB time=00:00:03.66 bitrate=1715.9kbits/s speed=0.0124x elapsed=0:04:54.75    \nframe=  113 fps=0.4 q=46.8 size=     768KiB time=00:00:03.70 bitrate=1700.5kbits/s speed=0.0125x elapsed=0:04:55.33    \nframe=  113 fps=0.4 q=46.8 size=     768KiB time=00:00:03.70 bitrate=1700.5kbits/s speed=0.0125x elapsed=0:04:55.88    \nframe=  113 fps=0.4 q=46.8 size=     768KiB time=00:00:03.70 bitrate=1700.5kbits/s speed=0.0125x elapsed=0:04:56.40    \nframe=  113 fps=0.4 q=46.8 size=     768KiB time=00:00:03.70 bitrate=1700.5kbits/s speed=0.0125x elapsed=0:04:56.96    \nframe=  113 fps=0.4 q=46.8 size=     768KiB time=00:00:03.70 bitrate=1700.5kbits/s speed=0.0124x elapsed=0:04:57.53    \nframe=  113 fps=0.4 q=46.8 size=     768KiB time=00:00:03.70 bitrate=1700.5kbits/s speed=0.0124x elapsed=0:04:58.06    \nframe=  113 fps=0.4 q=46.8 size=     768KiB time=00:00:03.70 bitrate=1700.5kbits/s speed=0.0124x elapsed=0:04:58.65    \nframe=  113 fps=0.4 q=46.8 size=     768KiB time=00:00:03.70 bitrate=1700.5kbits/s speed=0.0124x elapsed=0:04:59.19    \nframe=  113 fps=0.4 q=46.8 size=     768KiB time=00:00:03.70 bitrate=1700.5kbits/s speed=0.0123x elapsed=0:04:59.70    \nframe=  113 fps=0.4 q=46.8 size=     768KiB time=00:00:03.70 bitrate=1700.5kbits/s speed=0.0123x elapsed=0:05:00.27    \nframe=  113 fps=0.4 q=46.8 size=     768KiB time=00:00:03.70 bitrate=1700.5kbits/s speed=0.0123x elapsed=0:05:00.88    \nframe=  113 fps=0.4 q=46.8 size=     768KiB time=00:00:03.70 bitrate=1700.5kbits/s speed=0.0123x elapsed=0:05:01.46    \nframe=  114 fps=0.4 q=46.8 size=     768KiB time=00:00:03.73 bitrate=1685.3kbits/s speed=0.0124x elapsed=0:05:02.01    \nframe=  114 fps=0.4 q=46.8 size=     768KiB time=00:00:03.73 bitrate=1685.3kbits/s speed=0.0123x elapsed=0:05:02.55    \nframe=  114 fps=0.4 q=46.8 size=     768KiB time=00:00:03.73 bitrate=1685.3kbits/s speed=0.0123x elapsed=0:05:03.12    \nframe=  114 fps=0.4 q=46.8 size=     768KiB time=00:00:03.73 bitrate=1685.3kbits/s speed=0.0123x elapsed=0:05:03.67    \nframe=  115 fps=0.4 q=44.6 size=     768KiB time=00:00:03.76 bitrate=1670.4kbits/s speed=0.0124x elapsed=0:05:04.22    \nframe=  115 fps=0.4 q=44.6 size=     768KiB time=00:00:03.76 bitrate=1670.4kbits/s speed=0.0124x elapsed=0:05:04.80    \nframe=  115 fps=0.4 q=44.6 size=     768KiB time=00:00:03.76 bitrate=1670.4kbits/s speed=0.0123x elapsed=0:05:05.32    \nframe=  115 fps=0.4 q=44.6 size=     768KiB time=00:00:03.76 bitrate=1670.4kbits/s speed=0.0123x elapsed=0:05:05.85    \nframe=  115 fps=0.4 q=44.6 size=     768KiB time=00:00:03.76 bitrate=1670.4kbits/s speed=0.0123x elapsed=0:05:06.40    \nframe=  115 fps=0.4 q=44.6 size=     768KiB time=00:00:03.76 bitrate=1670.4kbits/s speed=0.0123x elapsed=0:05:06.93    \nframe=  116 fps=0.4 q=45.6 size=     768KiB time=00:00:03.80 bitrate=1655.7kbits/s speed=0.0124x elapsed=0:05:07.45    \nframe=  116 fps=0.4 q=45.6 size=     768KiB time=00:00:03.80 bitrate=1655.7kbits/s speed=0.0123x elapsed=0:05:07.97    \nframe=  116 fps=0.4 q=45.6 size=     768KiB time=00:00:03.80 bitrate=1655.7kbits/s speed=0.0123x elapsed=0:05:08.49    \nframe=  116 fps=0.4 q=45.6 size=     768KiB time=00:00:03.80 bitrate=1655.7kbits/s speed=0.0123x elapsed=0:05:09.02    \nframe=  116 fps=0.4 q=45.6 size=     768KiB time=00:00:03.80 bitrate=1655.7kbits/s speed=0.0123x elapsed=0:05:09.54    \nframe=  116 fps=0.4 q=45.6 size=     768KiB time=00:00:03.80 bitrate=1655.7kbits/s speed=0.0123x elapsed=0:05:10.12    \nframe=  117 fps=0.4 q=46.7 size=     768KiB time=00:00:03.83 bitrate=1641.3kbits/s speed=0.0123x elapsed=0:05:10.69    \nframe=  117 fps=0.4 q=46.7 size=     768KiB time=00:00:03.83 bitrate=1641.3kbits/s speed=0.0123x elapsed=0:05:11.27    \nframe=  117 fps=0.4 q=46.7 size=     768KiB time=00:00:03.83 bitrate=1641.3kbits/s speed=0.0123x elapsed=0:05:11.84    \nframe=  117 fps=0.4 q=46.7 size=     768KiB time=00:00:03.83 bitrate=1641.3kbits/s speed=0.0123x elapsed=0:05:12.38    \nframe=  117 fps=0.4 q=46.7 size=     768KiB time=00:00:03.83 bitrate=1641.3kbits/s speed=0.0122x elapsed=0:05:12.92    \nframe=  117 fps=0.4 q=46.7 size=     768KiB time=00:00:03.83 bitrate=1641.3kbits/s speed=0.0122x elapsed=0:05:13.46    \nframe=  117 fps=0.4 q=46.7 size=     768KiB time=00:00:03.83 bitrate=1641.3kbits/s speed=0.0122x elapsed=0:05:14.00    \nframe=  117 fps=0.4 q=46.7 size=     768KiB time=00:00:03.83 bitrate=1641.3kbits/s speed=0.0122x elapsed=0:05:14.53    \nframe=  117 fps=0.4 q=46.7 size=     768KiB time=00:00:03.83 bitrate=1641.3kbits/s speed=0.0122x elapsed=0:05:15.04    \nframe=  118 fps=0.4 q=46.7 size=     768KiB time=00:00:03.86 bitrate=1627.2kbits/s speed=0.0123x elapsed=0:05:15.56    \nframe=  118 fps=0.4 q=46.7 size=     768KiB time=00:00:03.86 bitrate=1627.2kbits/s speed=0.0122x elapsed=0:05:16.12    \nframe=  118 fps=0.4 q=46.7 size=     768KiB time=00:00:03.86 bitrate=1627.2kbits/s speed=0.0122x elapsed=0:05:16.63    \nframe=  119 fps=0.4 q=46.8 size=     768KiB time=00:00:03.90 bitrate=1613.3kbits/s speed=0.0123x elapsed=0:05:17.14    \nframe=  119 fps=0.4 q=46.8 size=     768KiB time=00:00:03.90 bitrate=1613.3kbits/s speed=0.0123x elapsed=0:05:17.69    \nframe=  120 fps=0.4 q=44.4 size=     768KiB time=00:00:03.93 bitrate=1599.6kbits/s speed=0.0124x elapsed=0:05:18.20    \nframe=  121 fps=0.4 q=45.5 size=     768KiB time=00:00:03.96 bitrate=1586.2kbits/s speed=0.0124x elapsed=0:05:18.73    \nframe=  121 fps=0.4 q=45.5 size=     768KiB time=00:00:03.96 bitrate=1586.2kbits/s speed=0.0124x elapsed=0:05:19.26    \nframe=  121 fps=0.4 q=45.5 size=     768KiB time=00:00:03.96 bitrate=1586.2kbits/s speed=0.0124x elapsed=0:05:19.77    \nframe=  121 fps=0.4 q=45.5 size=     768KiB time=00:00:03.96 bitrate=1586.2kbits/s speed=0.0124x elapsed=0:05:20.28    \nframe=  122 fps=0.4 q=47.0 size=     768KiB time=00:00:04.00 bitrate=1573.0kbits/s speed=0.0125x elapsed=0:05:20.81    \nframe=  122 fps=0.4 q=47.0 size=     768KiB time=00:00:04.00 bitrate=1573.0kbits/s speed=0.0124x elapsed=0:05:21.35    \nframe=  123 fps=0.4 q=46.8 size=     768KiB time=00:00:04.03 bitrate=1560.0kbits/s speed=0.0125x elapsed=0:05:21.90    \nframe=  123 fps=0.4 q=46.8 size=     768KiB time=00:00:04.03 bitrate=1560.0kbits/s speed=0.0125x elapsed=0:05:22.42    \nframe=  123 fps=0.4 q=46.8 size=     768KiB time=00:00:04.03 bitrate=1560.0kbits/s speed=0.0125x elapsed=0:05:22.94    \nframe=  123 fps=0.4 q=46.8 size=     768KiB time=00:00:04.03 bitrate=1560.0kbits/s speed=0.0125x elapsed=0:05:23.47    \nframe=  123 fps=0.4 q=46.8 size=     768KiB time=00:00:04.03 bitrate=1560.0kbits/s speed=0.0124x elapsed=0:05:24.00    \nframe=  123 fps=0.4 q=46.8 size=     768KiB time=00:00:04.03 bitrate=1560.0kbits/s speed=0.0124x elapsed=0:05:24.52    \nframe=  123 fps=0.4 q=46.8 size=     768KiB time=00:00:04.03 bitrate=1560.0kbits/s speed=0.0124x elapsed=0:05:25.04    \nframe=  123 fps=0.4 q=46.8 size=     768KiB time=00:00:04.03 bitrate=1560.0kbits/s speed=0.0124x elapsed=0:05:25.56    \nframe=  124 fps=0.4 q=44.6 size=     768KiB time=00:00:04.06 bitrate=1547.2kbits/s speed=0.0125x elapsed=0:05:26.08    \nframe=  124 fps=0.4 q=44.6 size=     768KiB time=00:00:04.06 bitrate=1547.2kbits/s speed=0.0125x elapsed=0:05:26.59    \nframe=  124 fps=0.4 q=44.6 size=     768KiB time=00:00:04.06 bitrate=1547.2kbits/s speed=0.0124x elapsed=0:05:27.15    \nframe=  124 fps=0.4 q=44.6 size=     768KiB time=00:00:04.06 bitrate=1547.2kbits/s speed=0.0124x elapsed=0:05:27.68    \nframe=  124 fps=0.4 q=44.6 size=     768KiB time=00:00:04.06 bitrate=1547.2kbits/s speed=0.0124x elapsed=0:05:28.20    \nframe=  125 fps=0.4 q=45.2 size=     768KiB time=00:00:04.10 bitrate=1534.6kbits/s speed=0.0125x elapsed=0:05:28.72    \nframe=  125 fps=0.4 q=45.2 size=     768KiB time=00:00:04.10 bitrate=1534.6kbits/s speed=0.0125x elapsed=0:05:29.23    \nframe=  125 fps=0.4 q=45.2 size=     768KiB time=00:00:04.10 bitrate=1534.6kbits/s speed=0.0124x elapsed=0:05:29.75    \nframe=  126 fps=0.4 q=46.9 size=     768KiB time=00:00:04.13 bitrate=1522.2kbits/s speed=0.0125x elapsed=0:05:30.29    \nframe=  126 fps=0.4 q=46.9 size=     768KiB time=00:00:04.13 bitrate=1522.2kbits/s speed=0.0125x elapsed=0:05:30.83    \nframe=  126 fps=0.4 q=46.9 size=     768KiB time=00:00:04.13 bitrate=1522.2kbits/s speed=0.0125x elapsed=0:05:31.35    \nframe=  126 fps=0.4 q=46.9 size=     768KiB time=00:00:04.13 bitrate=1522.2kbits/s speed=0.0125x elapsed=0:05:31.87    \nframe=  126 fps=0.4 q=46.9 size=     768KiB time=00:00:04.13 bitrate=1522.2kbits/s speed=0.0124x elapsed=0:05:32.39    \nframe=  127 fps=0.4 q=46.7 size=     768KiB time=00:00:04.16 bitrate=1510.0kbits/s speed=0.0125x elapsed=0:05:32.92    \nframe=  127 fps=0.4 q=46.7 size=     768KiB time=00:00:04.16 bitrate=1510.0kbits/s speed=0.0125x elapsed=0:05:33.46    \nframe=  127 fps=0.4 q=46.7 size=     768KiB time=00:00:04.16 bitrate=1510.0kbits/s speed=0.0125x elapsed=0:05:33.97    \nframe=  127 fps=0.4 q=46.7 size=     768KiB time=00:00:04.16 bitrate=1510.0kbits/s speed=0.0125x elapsed=0:05:34.49    \nframe=  127 fps=0.4 q=46.7 size=     768KiB time=00:00:04.16 bitrate=1510.0kbits/s speed=0.0124x elapsed=0:05:35.02    \nframe=  127 fps=0.4 q=46.7 size=     768KiB time=00:00:04.16 bitrate=1510.0kbits/s speed=0.0124x elapsed=0:05:35.53    \nframe=  127 fps=0.4 q=46.7 size=     768KiB time=00:00:04.16 bitrate=1510.0kbits/s speed=0.0124x elapsed=0:05:36.06    \nframe=  128 fps=0.4 q=44.6 size=     768KiB time=00:00:04.20 bitrate=1498.0kbits/s speed=0.0125x elapsed=0:05:36.59    \nframe=  128 fps=0.4 q=44.6 size=     768KiB time=00:00:04.20 bitrate=1498.0kbits/s speed=0.0125x elapsed=0:05:37.11    \nframe=  128 fps=0.4 q=44.6 size=     768KiB time=00:00:04.20 bitrate=1498.0kbits/s speed=0.0124x elapsed=0:05:37.63    \nframe=  128 fps=0.4 q=44.6 size=     768KiB time=00:00:04.20 bitrate=1498.0kbits/s speed=0.0124x elapsed=0:05:38.14    \nframe=  128 fps=0.4 q=44.6 size=     768KiB time=00:00:04.20 bitrate=1498.0kbits/s speed=0.0124x elapsed=0:05:38.67    \nframe=  128 fps=0.4 q=44.6 size=     768KiB time=00:00:04.20 bitrate=1498.0kbits/s speed=0.0124x elapsed=0:05:39.22    \nframe=  129 fps=0.4 q=45.4 size=     768KiB time=00:00:04.23 bitrate=1486.3kbits/s speed=0.0125x elapsed=0:05:39.76    \nframe=  130 fps=0.4 q=46.8 size=    1024KiB time=00:00:04.26 bitrate=1966.2kbits/s speed=0.0125x elapsed=0:05:40.27    \nframe=  130 fps=0.4 q=46.8 size=    1024KiB time=00:00:04.26 bitrate=1966.2kbits/s speed=0.0125x elapsed=0:05:40.79    \nframe=  130 fps=0.4 q=46.8 size=    1024KiB time=00:00:04.26 bitrate=1966.2kbits/s speed=0.0125x elapsed=0:05:41.34    \nframe=  130 fps=0.4 q=46.8 size=    1024KiB time=00:00:04.26 bitrate=1966.2kbits/s speed=0.0125x elapsed=0:05:41.88    \nframe=  130 fps=0.4 q=46.8 size=    1024KiB time=00:00:04.26 bitrate=1966.2kbits/s speed=0.0125x elapsed=0:05:42.40    \nframe=  130 fps=0.4 q=46.8 size=    1024KiB time=00:00:04.26 bitrate=1966.2kbits/s speed=0.0124x elapsed=0:05:42.92    \nframe=  130 fps=0.4 q=46.8 size=    1024KiB time=00:00:04.26 bitrate=1966.2kbits/s speed=0.0124x elapsed=0:05:43.43    \nframe=  131 fps=0.4 q=46.7 size=    1024KiB time=00:00:04.30 bitrate=1950.9kbits/s speed=0.0125x elapsed=0:05:43.96    \nframe=  131 fps=0.4 q=46.7 size=    1024KiB time=00:00:04.30 bitrate=1950.9kbits/s speed=0.0125x elapsed=0:05:44.51    \nframe=  131 fps=0.4 q=46.7 size=    1024KiB time=00:00:04.30 bitrate=1950.9kbits/s speed=0.0125x elapsed=0:05:45.03    \nframe=  131 fps=0.4 q=46.7 size=    1024KiB time=00:00:04.30 bitrate=1950.9kbits/s speed=0.0124x elapsed=0:05:45.56    \nframe=  131 fps=0.4 q=46.7 size=    1024KiB time=00:00:04.30 bitrate=1950.9kbits/s speed=0.0124x elapsed=0:05:46.10    \nframe=  131 fps=0.4 q=46.7 size=    1024KiB time=00:00:04.30 bitrate=1950.9kbits/s speed=0.0124x elapsed=0:05:46.60    \nframe=  131 fps=0.4 q=46.7 size=    1024KiB time=00:00:04.30 bitrate=1950.9kbits/s speed=0.0124x elapsed=0:05:47.13    \nframe=  132 fps=0.4 q=46.8 size=    1024KiB time=00:00:04.33 bitrate=1935.9kbits/s speed=0.0125x elapsed=0:05:47.65    \nframe=  132 fps=0.4 q=46.8 size=    1024KiB time=00:00:04.33 bitrate=1935.9kbits/s speed=0.0124x elapsed=0:05:48.19    \nframe=  132 fps=0.4 q=46.8 size=    1024KiB time=00:00:04.33 bitrate=1935.9kbits/s speed=0.0124x elapsed=0:05:48.71    \nframe=  132 fps=0.4 q=46.8 size=    1024KiB time=00:00:04.33 bitrate=1935.9kbits/s speed=0.0124x elapsed=0:05:49.24    \nframe=  133 fps=0.4 q=44.2 size=    1024KiB time=00:00:04.36 bitrate=1921.1kbits/s speed=0.0125x elapsed=0:05:49.77    \nframe=  133 fps=0.4 q=44.2 size=    1024KiB time=00:00:04.36 bitrate=1921.1kbits/s speed=0.0125x elapsed=0:05:50.28    \nframe=  133 fps=0.4 q=44.2 size=    1024KiB time=00:00:04.36 bitrate=1921.1kbits/s speed=0.0124x elapsed=0:05:50.81    \nframe=  133 fps=0.4 q=44.2 size=    1024KiB time=00:00:04.36 bitrate=1921.1kbits/s speed=0.0124x elapsed=0:05:51.33    \nframe=  134 fps=0.4 q=45.2 size=    1024KiB time=00:00:04.40 bitrate=1906.6kbits/s speed=0.0125x elapsed=0:05:51.84    \nframe=  134 fps=0.4 q=45.2 size=    1024KiB time=00:00:04.40 bitrate=1906.6kbits/s speed=0.0125x elapsed=0:05:52.36    \nframe=  134 fps=0.4 q=45.2 size=    1024KiB time=00:00:04.40 bitrate=1906.6kbits/s speed=0.0125x elapsed=0:05:52.89    \nframe=  134 fps=0.4 q=45.2 size=    1024KiB time=00:00:04.40 bitrate=1906.6kbits/s speed=0.0124x elapsed=0:05:53.43    \nframe=  134 fps=0.4 q=45.2 size=    1024KiB time=00:00:04.40 bitrate=1906.6kbits/s speed=0.0124x elapsed=0:05:53.94    \nframe=  134 fps=0.4 q=45.2 size=    1024KiB time=00:00:04.40 bitrate=1906.6kbits/s speed=0.0124x elapsed=0:05:54.47    \nframe=  135 fps=0.4 q=46.9 size=    1024KiB time=00:00:04.43 bitrate=1892.2kbits/s speed=0.0125x elapsed=0:05:54.99    \nframe=  135 fps=0.4 q=46.9 size=    1024KiB time=00:00:04.43 bitrate=1892.2kbits/s speed=0.0125x elapsed=0:05:55.58    \nframe=  135 fps=0.4 q=46.9 size=    1024KiB time=00:00:04.43 bitrate=1892.2kbits/s speed=0.0124x elapsed=0:05:56.13    \nframe=  135 fps=0.4 q=46.9 size=    1024KiB time=00:00:04.43 bitrate=1892.2kbits/s speed=0.0124x elapsed=0:05:56.66    \nframe=  135 fps=0.4 q=46.9 size=    1024KiB time=00:00:04.43 bitrate=1892.2kbits/s speed=0.0124x elapsed=0:05:57.19    \nframe=  135 fps=0.4 q=46.9 size=    1024KiB time=00:00:04.43 bitrate=1892.2kbits/s speed=0.0124x elapsed=0:05:57.71    \nframe=  136 fps=0.4 q=46.7 size=    1024KiB time=00:00:04.46 bitrate=1878.1kbits/s speed=0.0125x elapsed=0:05:58.24    \nframe=  136 fps=0.4 q=46.7 size=    1024KiB time=00:00:04.46 bitrate=1878.1kbits/s speed=0.0124x elapsed=0:05:58.77    \nframe=  136 fps=0.4 q=46.7 size=    1024KiB time=00:00:04.46 bitrate=1878.1kbits/s speed=0.0124x elapsed=0:05:59.34    \nframe=  136 fps=0.4 q=46.7 size=    1024KiB time=00:00:04.46 bitrate=1878.1kbits/s speed=0.0124x elapsed=0:05:59.85    \nframe=  136 fps=0.4 q=46.7 size=    1024KiB time=00:00:04.46 bitrate=1878.1kbits/s speed=0.0124x elapsed=0:06:00.37    \nframe=  136 fps=0.4 q=46.7 size=    1024KiB time=00:00:04.46 bitrate=1878.1kbits/s speed=0.0124x elapsed=0:06:00.91    \nframe=  136 fps=0.4 q=46.7 size=    1024KiB time=00:00:04.46 bitrate=1878.1kbits/s speed=0.0124x elapsed=0:06:01.43    \nframe=  137 fps=0.4 q=44.1 size=    1024KiB time=00:00:04.50 bitrate=1864.2kbits/s speed=0.0124x elapsed=0:06:01.95    \nframe=  137 fps=0.4 q=44.1 size=    1024KiB time=00:00:04.50 bitrate=1864.2kbits/s speed=0.0124x elapsed=0:06:02.48    \nframe=  137 fps=0.4 q=44.1 size=    1024KiB time=00:00:04.50 bitrate=1864.2kbits/s speed=0.0124x elapsed=0:06:03.00    \nframe=  138 fps=0.4 q=44.7 size=    1024KiB time=00:00:04.53 bitrate=1850.5kbits/s speed=0.0125x elapsed=0:06:03.52    \nframe=  138 fps=0.4 q=44.7 size=    1024KiB time=00:00:04.53 bitrate=1850.5kbits/s speed=0.0125x elapsed=0:06:04.03    \nframe=  138 fps=0.4 q=44.7 size=    1024KiB time=00:00:04.53 bitrate=1850.5kbits/s speed=0.0124x elapsed=0:06:04.55    \nframe=  138 fps=0.4 q=44.7 size=    1024KiB time=00:00:04.53 bitrate=1850.5kbits/s speed=0.0124x elapsed=0:06:05.06    \nframe=  138 fps=0.4 q=44.7 size=    1024KiB time=00:00:04.53 bitrate=1850.5kbits/s speed=0.0124x elapsed=0:06:05.60    \nframe=  138 fps=0.4 q=44.7 size=    1024KiB time=00:00:04.53 bitrate=1850.5kbits/s speed=0.0124x elapsed=0:06:06.12    \nframe=  139 fps=0.4 q=46.6 size=    1024KiB time=00:00:04.56 bitrate=1837.0kbits/s speed=0.0125x elapsed=0:06:06.67    \nframe=  139 fps=0.4 q=46.6 size=    1024KiB time=00:00:04.56 bitrate=1837.0kbits/s speed=0.0124x elapsed=0:06:07.20    \nframe=  139 fps=0.4 q=46.6 size=    1024KiB time=00:00:04.56 bitrate=1837.0kbits/s speed=0.0124x elapsed=0:06:07.75    \nframe=  139 fps=0.4 q=46.6 size=    1024KiB time=00:00:04.56 bitrate=1837.0kbits/s speed=0.0124x elapsed=0:06:08.30    \nframe=  139 fps=0.4 q=46.6 size=    1024KiB time=00:00:04.56 bitrate=1837.0kbits/s speed=0.0124x elapsed=0:06:08.82    \nframe=  139 fps=0.4 q=46.6 size=    1024KiB time=00:00:04.56 bitrate=1837.0kbits/s speed=0.0124x elapsed=0:06:09.34    \nframe=  139 fps=0.4 q=46.6 size=    1024KiB time=00:00:04.56 bitrate=1837.0kbits/s speed=0.0123x elapsed=0:06:09.86    \nframe=  140 fps=0.4 q=46.1 size=    1024KiB time=00:00:04.60 bitrate=1823.7kbits/s speed=0.0124x elapsed=0:06:10.37    \nframe=  140 fps=0.4 q=46.1 size=    1024KiB time=00:00:04.60 bitrate=1823.7kbits/s speed=0.0124x elapsed=0:06:10.89    \nframe=  141 fps=0.4 q=46.7 size=    1024KiB time=00:00:04.63 bitrate=1810.6kbits/s speed=0.0125x elapsed=0:06:11.41    \nframe=  141 fps=0.4 q=46.7 size=    1024KiB time=00:00:04.63 bitrate=1810.6kbits/s speed=0.0125x elapsed=0:06:11.92    \nframe=  142 fps=0.4 q=44.6 size=    1024KiB time=00:00:04.66 bitrate=1797.6kbits/s speed=0.0125x elapsed=0:06:12.44    \nframe=  142 fps=0.4 q=44.6 size=    1024KiB time=00:00:04.66 bitrate=1797.6kbits/s speed=0.0125x elapsed=0:06:12.95    \nframe=  143 fps=0.4 q=45.2 size=    1024KiB time=00:00:04.70 bitrate=1784.9kbits/s speed=0.0126x elapsed=0:06:13.47    \nframe=  143 fps=0.4 q=45.2 size=    1024KiB time=00:00:04.70 bitrate=1784.9kbits/s speed=0.0126x elapsed=0:06:13.99    \nframe=  144 fps=0.4 q=46.6 size=    1024KiB time=00:00:04.73 bitrate=1772.3kbits/s speed=0.0126x elapsed=0:06:14.50    \nframe=  144 fps=0.4 q=46.6 size=    1024KiB time=00:00:04.73 bitrate=1772.3kbits/s speed=0.0126x elapsed=0:06:15.01    \nframe=  145 fps=0.4 q=46.8 size=    1024KiB time=00:00:04.76 bitrate=1759.9kbits/s speed=0.0127x elapsed=0:06:15.53    \nframe=  145 fps=0.4 q=46.8 size=    1024KiB time=00:00:04.76 bitrate=1759.9kbits/s speed=0.0127x elapsed=0:06:16.04    \nframe=  145 fps=0.4 q=46.8 size=    1024KiB time=00:00:04.76 bitrate=1759.9kbits/s speed=0.0127x elapsed=0:06:16.57    \nframe=  146 fps=0.4 q=44.3 size=    1024KiB time=00:00:04.80 bitrate=1747.7kbits/s speed=0.0127x elapsed=0:06:17.08    \nframe=  147 fps=0.4 q=45.1 size=    1024KiB time=00:00:04.83 bitrate=1735.6kbits/s speed=0.0128x elapsed=0:06:17.59    \nframe=  147 fps=0.4 q=45.1 size=    1024KiB time=00:00:04.83 bitrate=1735.6kbits/s speed=0.0128x elapsed=0:06:18.10    \nframe=  149 fps=0.4 q=45.7 size=    1024KiB time=00:00:04.90 bitrate=1712.0kbits/s speed=0.0129x elapsed=0:06:18.62    \n[mp4 @ 0000016ea5a4aa40] Starting second pass: moving the moov atom to the beginning of the file\n[out#0/mp4 @ 0000016ea66af040] video:1196KiB audio:0KiB subtitle:0KiB other streams:0KiB global headers:2KiB muxing overhead: 0.421860%\nframe=  150 fps=0.4 q=46.6 Lsize=    1201KiB time=00:00:04.93 bitrate=1994.9kbits/s speed=0.013x elapsed=0:06:18.93    \nx265 [info]: frame I:      2, Avg QP:41.62  kb/s: 4126.68 \nx265 [info]: frame P:     32, Avg QP:45.29  kb/s: 2653.64 \nx265 [info]: frame B:    116, Avg QP:47.46  kb/s: 1730.16 \nx265 [info]: Weighted P-Frames: Y:0.0% UV:0.0%\n\nencoded 150 frames in 378.64s (0.40 fps), 1959.12 kb/s, Avg QP:46.92\n",
  "seconds": 379.22477173805237,
  "probe_out": {}
}